<svg width="891" height="863" viewBox="0 0 891 863" fill="none" xmlns="http://www.w3.org/2000/svg">
<g clip-path="url(#clip0_181_860)">
<mask id="mask0_181_860" style="mask-type:luminance" maskUnits="userSpaceOnUse" x="0" y="0" width="891" height="863">
<path d="M890.143 0H0V862.058H890.143V0Z" fill="white"/>
</mask>
<g mask="url(#mask0_181_860)">
<path d="M638.143 862.058C777.319 862.058 890.143 851.647 890.143 838.805C890.143 825.963 777.319 815.552 638.143 815.552C498.967 815.552 386.143 825.963 386.143 838.805C386.143 851.647 498.967 862.058 638.143 862.058Z" fill="white"/>
<path opacity="0.1" d="M638.143 862.058C777.319 862.058 890.143 851.647 890.143 838.805C890.143 825.963 777.319 815.552 638.143 815.552C498.967 815.552 386.143 825.963 386.143 838.805C386.143 851.647 498.967 862.058 638.143 862.058Z" fill="#0F172A"/>
<path d="M219.812 493.015H139.486V516.387H219.812V493.015Z" fill="#C7D1FA"/>
<path opacity="0.05" d="M160.798 493.015H150.273V516.387H160.798V493.015Z" fill="#0F172A"/>
<path d="M209.548 498.095H165.784V511.945H209.548V498.095Z" fill="white"/>
<path d="M283.883 496.064L209.246 463.466L199.891 484.884L274.528 517.482L283.883 496.064Z" fill="#C7D1FA"/>
<path opacity="0.05" d="M283.883 496.064L209.246 463.466L199.891 484.884L274.528 517.482L283.883 496.064Z" fill="#0F172A"/>
<path d="M273.86 491.686L264.08 487.415L254.725 508.833L264.505 513.105L273.86 491.686Z" fill="white"/>
<path d="M257.413 490.047L216.75 472.286L211.206 484.979L251.87 502.739L257.413 490.047Z" fill="white"/>
<path opacity="0.05" d="M284.023 789.091H263.837V802.572H284.023V789.091Z" fill="#0F172A"/>
<path opacity="0.05" d="M77.6421 789.091H57.4561V802.572H77.6421V789.091Z" fill="#0F172A"/>
<path d="M302.527 517.483H38.9531V788.635H302.527V517.483Z" fill="#C7D1FA"/>
<path opacity="0.03" d="M302.527 517.483H38.9531V788.635H302.527V517.483Z" fill="#0F172A"/>
<path d="M351.371 517.483H87.7974V788.635H351.371V517.483Z" fill="#C7D1FA"/>
<path opacity="0.05" d="M332.867 789.091H312.681V802.572H332.867V789.091Z" fill="#0F172A"/>
<path opacity="0.05" d="M126.487 789.091H106.301V802.572H126.487V789.091Z" fill="#0F172A"/>
<path opacity="0.7" d="M341.478 530.183H97.6919V582.277H341.478V530.183Z" fill="white"/>
<path opacity="0.7" d="M341.478 595.027H97.6919V647.121H341.478V595.027Z" fill="white"/>
<path opacity="0.7" d="M341.478 659.871H97.6919V711.965H341.478V659.871Z" fill="white"/>
<path opacity="0.05" d="M219.585 563.519C223.611 563.519 226.874 560.256 226.874 556.23C226.874 552.204 223.611 548.941 219.585 548.941C215.559 548.941 212.296 552.204 212.296 556.23C212.296 560.256 215.559 563.519 219.585 563.519Z" fill="#0F172A"/>
<path opacity="0.05" d="M219.585 628.363C223.611 628.363 226.874 625.1 226.874 621.074C226.874 617.048 223.611 613.785 219.585 613.785C215.559 613.785 212.296 617.048 212.296 621.074C212.296 625.1 215.559 628.363 219.585 628.363Z" fill="#0F172A"/>
<path opacity="0.05" d="M219.585 693.208C223.611 693.208 226.874 689.945 226.874 685.919C226.874 681.893 223.611 678.63 219.585 678.63C215.559 678.63 212.296 681.893 212.296 685.919C212.296 689.945 215.559 693.208 219.585 693.208Z" fill="#0F172A"/>
<path opacity="0.7" d="M341.478 726.177H97.6919V778.271H341.478V726.177Z" fill="white"/>
<path opacity="0.05" d="M219.585 759.513C223.611 759.513 226.874 756.25 226.874 752.224C226.874 748.198 223.611 744.935 219.585 744.935C215.559 744.935 212.296 748.198 212.296 752.224C212.296 756.25 215.559 759.513 219.585 759.513Z" fill="#0F172A"/>
<path d="M132.517 248.353H288.37V45.4917H132.517V248.353Z" fill="#C7D1FA"/>
<path d="M132.518 45.4917H127.462V248.353H132.518V45.4917Z" fill="#C7D1FA"/>
<path opacity="0.05" d="M132.518 45.4917H127.462V248.353H132.518V45.4917Z" fill="#0F172A"/>
<path opacity="0.05" d="M160.909 211.399H259.98V82.4448H160.909V211.399Z" fill="#0F172A"/>
<path opacity="0.03" d="M160.909 211.399H166.072V82.4448H160.909V211.399Z" fill="#0F172A"/>
<path d="M5.05505 426.872H132.517V298.239H5.05505V426.872Z" fill="#C7D1FA"/>
<path opacity="0.05" d="M28.2738 403.44H109.298V321.672H28.2738V403.44Z" fill="#0F172A"/>
<path d="M5.056 298.24H0V426.873H5.056V298.24Z" fill="#C7D1FA"/>
<path opacity="0.05" d="M5.056 298.24H0V426.873H5.056V298.24Z" fill="#0F172A"/>
<path opacity="0.03" d="M28.274 403.44H33.437V321.672H28.274V403.44Z" fill="#0F172A"/>
<path d="M782.301 45.0088H457.061V370.249H782.301V45.0088Z" fill="#C7D1FA"/>
<path d="M457.061 45.0088H453.333V370.249H457.061V45.0088Z" fill="#C7D1FA"/>
<path opacity="0.05" d="M457.061 45.0088H453.333V370.249H457.061V45.0088Z" fill="#0F172A"/>
<path opacity="0.05" d="M535.852 269.126V184.032H605.556V233.47H713.527V321.005H759.417V370.249H713.527H704.687H472.706V269.126H535.852Z" fill="#0F172A"/>
<path opacity="0.34" d="M596.608 193.271H545.849V202.51H596.608V193.271Z" fill="#FFFFFA"/>
<path opacity="0.34" d="M596.608 212.417H545.849V221.656H596.608V212.417Z" fill="#FFFFFA"/>
<path opacity="0.34" d="M596.608 231.563H545.849V240.802H596.608V231.563Z" fill="#FFFFFA"/>
<path opacity="0.34" d="M491.063 278.094H481.707V287.333H491.063V278.094Z" fill="#FFFFFA"/>
<path opacity="0.34" d="M491.063 297.24H481.707V306.479H491.063V297.24Z" fill="#FFFFFA"/>
<path opacity="0.34" d="M491.063 316.385H481.707V325.624H491.063V316.385Z" fill="#FFFFFA"/>
<path opacity="0.34" d="M508.371 278.094H499.015V287.333H508.371V278.094Z" fill="#FFFFFA"/>
<path opacity="0.34" d="M508.371 297.24H499.015V306.479H508.371V297.24Z" fill="#FFFFFA"/>
<path opacity="0.34" d="M508.371 316.385H499.015V325.624H508.371V316.385Z" fill="#FFFFFA"/>
<path opacity="0.34" d="M525.211 278.094H515.855V287.333H525.211V278.094Z" fill="#FFFFFA"/>
<path opacity="0.34" d="M525.211 297.24H515.855V306.479H525.211V297.24Z" fill="#FFFFFA"/>
<path opacity="0.34" d="M525.211 316.385H515.855V325.624H525.211V316.385Z" fill="#FFFFFA"/>
<path d="M457.061 205.804H522.504V45.0078H527.917V205.804H704.687V45.0078H710.099V205.804H782.301V211.216H710.099V370.249H704.687V211.216H527.917V370.249H522.504V211.216H457.061V205.804Z" fill="white"/>
<path d="M795.257 369.856H444.104V380.672H795.257V369.856Z" fill="#C7D1FA"/>
<path opacity="0.1" d="M795.257 369.856H444.104V380.672H795.257V369.856Z" fill="#0F172A"/>
<path opacity="0.1" d="M444.104 369.856H439.034V380.672H444.104V369.856Z" fill="#0F172A"/>
<path opacity="0.1" d="M444.104 369.856H439.034V380.672H444.104V369.856Z" fill="#0F172A"/>
<path d="M434.156 12.5137H122.643C108.211 12.5137 96.5122 24.213 96.5122 38.6447V416.815C96.5122 431.247 108.211 442.946 122.643 442.946H434.156C448.588 442.946 460.287 431.247 460.287 416.815V38.6447C460.287 24.213 448.588 12.5137 434.156 12.5137Z" fill="#0F172A"/>
<path d="M445.67 1H134.157C119.725 1 108.026 12.6992 108.026 27.131V405.301C108.026 419.733 119.725 431.432 134.157 431.432H445.67C460.102 431.432 471.801 419.733 471.801 405.301V27.131C471.801 12.6992 460.102 1 445.67 1Z" fill="white"/>
<path d="M445.67 432.432H134.157C119.197 432.432 107.026 420.261 107.026 405.301V27.131C107.026 12.171 119.197 0 134.157 0H445.67C460.63 0 472.801 12.171 472.801 27.131V405.301C472.801 420.261 460.63 432.432 445.67 432.432ZM134.157 2C120.3 2 109.026 13.273 109.026 27.131V405.301C109.026 419.158 120.3 430.432 134.157 430.432H445.67C459.527 430.432 470.801 419.159 470.801 405.301V27.131C470.801 13.274 459.528 2 445.67 2H134.157Z" fill="#0F172A"/>
<path d="M726.529 425.574C676.736 425.574 636.371 439.158 636.371 455.915V492.036H816.686V455.915C816.686 439.158 776.322 425.574 726.529 425.574Z" fill="#5865F2"/>
<path opacity="0.49" d="M726.529 425.574C676.736 425.574 636.371 439.158 636.371 455.915V492.036H816.686V455.915C816.686 439.158 776.322 425.574 726.529 425.574Z" fill="white"/>
<path opacity="0.49" d="M792.127 455.919V492.034H636.37V455.919C636.37 440.559 670.266 427.869 714.248 425.863C758.23 427.869 792.126 440.559 792.126 455.919H792.127Z" fill="white"/>
<path d="M816.687 843.01H819.713L816.687 488.832L813.687 491.858L815.826 739.261L709.013 741.076L706.858 491.832L703.858 491.858L706.014 741.127L641.535 742.223L639.37 491.832L636.37 488.858L639.396 843.01L642.37 842.985L641.56 745.224L706.039 744.128L706.858 843.01L709.858 842.985L709.039 744.077L815.852 742.261L816.687 843.01Z" fill="#0F172A"/>
<path d="M544.74 789.984C544.74 789.984 539.378 817.778 513.355 819.327C487.332 820.876 492.975 841.607 492.975 841.607H592.419V791.923L544.739 789.985L544.74 789.984Z" fill="#3543C4"/>
<path d="M601.477 706.388C601.477 706.388 608.934 733.694 586.268 746.571C563.601 759.448 577.816 775.559 577.816 775.559L667.048 731.663L645.117 687.081L601.478 706.388H601.477Z" fill="#3543C4"/>
<path d="M592.036 724.435L524.798 470.746C519.695 442.72 527.376 430.572 539.208 418.771C559.994 398.038 646.125 353.91 646.125 353.91L749.454 353.628C776.852 353.628 803.788 380.645 803.788 408.044C803.788 435.442 775.934 458.677 748.536 458.677L621.294 471.375L655.785 703.661L592.036 724.435Z" fill="#262626"/>
<path d="M655.786 703.661L642.207 612.213L573.415 654.177L592.036 724.435L655.786 703.661Z" fill="#0C0C0C"/>
<path d="M671.379 405.247C671.379 405.247 627.942 414.928 584.922 457.948C558.839 484.031 560.978 531.232 564.891 622.015L607.618 558.905L654.482 474.383L671.379 405.247Z" fill="#0C0C0C"/>
<path d="M821.777 353.597L751.604 353.266L751.577 354.19H730.329C730.329 354.19 677.105 403.169 634.251 434.032C603.081 456.48 584.066 477.882 582.421 501.209C578.41 558.069 533.172 800.574 533.172 800.574L601.254 810.883L660.996 521.072C660.996 521.072 754.421 478.004 776.03 463.016C796.378 448.902 810.751 443.447 817.484 428.045C829.114 401.444 821.777 353.598 821.777 353.598V353.597Z" fill="#262626"/>
<path d="M743.05 371.275L629.209 372.783L693.068 410.923L746.204 383.483C752.19 380.271 749.844 371.185 743.05 371.275Z" fill="#0F172A"/>
<path opacity="0.2" d="M743.05 371.275L629.209 372.783L693.068 410.923L746.204 383.483C752.19 380.271 749.844 371.185 743.05 371.275Z" fill="white"/>
<path d="M629.862 167.045L597.666 271.376L533.171 355.818L570.846 399.066L647.575 313.426C650.97 310.741 653.839 307.108 655.61 302.823L656.805 299.93L701.12 192.702L629.861 167.044L629.862 167.045Z" fill="#5865F2"/>
<path d="M686.094 139.105C686.298 139.078 688.563 176.657 732.218 173.381C762.44 171.117 773.216 139.052 773.909 139.052C770.651 138.359 766.624 137.308 765.023 136.948C759.706 135.75 753.069 131.362 751.535 122.121C750.651 116.794 752.151 89.5438 751.689 84.1548L705.298 94.5098C705.946 105.892 710.483 132.279 694.582 136.949C691.936 137.721 689.086 138.432 686.094 139.106V139.105Z" fill="#FF9E85"/>
<path opacity="0.22" d="M704.648 126.164C705.305 124.067 705.696 122.243 706.043 118.964C706.664 113.1 706.334 107.71 705.74 102.217C715.112 100.97 724.109 97.0279 731.38 90.9839C732.241 94.1649 736.979 108.066 735.667 111.09C733.188 116.805 721.536 126.164 704.648 126.164Z" fill="#0C0C0C"/>
<path d="M677.061 54.42C677.061 54.42 663.748 44.527 660.296 21.552C657.623 3.76299 674.136 15.177 674.136 15.177C674.136 15.177 672.336 2.34899 681.697 3.55399C691.058 4.75799 696.401 18.208 696.401 18.208" fill="#0C0C0C"/>
<path d="M730.065 4.69482C730.065 4.69482 776.52 9.32482 760.211 72.3488L756.106 72.6548L747.773 73.2758" fill="#0C0C0C"/>
<path d="M713.441 118.013C731.73 116.235 753.548 104.508 753.679 79.662L753.796 57.244C753.926 32.399 740.982 12.189 717.589 12.067C694.196 11.944 676.605 31.994 676.475 56.839L676.423 66.764C676.412 68.807 676.608 72.474 677.242 76.944C678.508 85.862 680.47 99.422 686.598 108.559C692.384 117.185 701.757 119.149 713.441 118.013Z" fill="#FF9E85"/>
<path d="M688.297 72.9706C689.692 72.769 690.659 71.4751 690.457 70.0808C690.255 68.6864 688.962 67.7195 687.567 67.9211C686.173 68.1227 685.206 69.4165 685.408 70.8109C685.609 72.2053 686.903 73.1722 688.297 72.9706Z" fill="#0A0A0A"/>
<path d="M705.23 86.3008C705.741 86.2268 706.123 85.7778 706.102 85.2508C706.08 84.6878 705.606 84.2488 705.042 84.2718L699.613 84.4858L701.36 73.3278C701.447 72.7708 701.066 72.2488 700.509 72.1618C699.953 72.0748 699.431 72.4548 699.343 73.0118L697.405 85.3968C697.358 85.6988 697.449 86.0048 697.652 86.2328C697.855 86.4608 698.149 86.5858 698.454 86.5738L705.123 86.3108C705.159 86.3098 705.196 86.3058 705.23 86.3008Z" fill="#0A0A0A"/>
<path d="M708.071 97.5649C717.225 96.2409 719.148 90.3159 719.233 90.0389C719.398 89.4999 719.095 88.9299 718.556 88.7649C718.021 88.5999 717.452 88.9009 717.284 89.4349C717.204 89.6869 715.194 95.5229 704.948 95.7759C704.373 95.7879 703.939 96.2579 703.952 96.8209C703.966 97.3839 704.434 97.8299 704.997 97.8159C706.103 97.7889 707.126 97.7009 708.071 97.5649Z" fill="#0A0A0A"/>
<path d="M709.895 56.2398C709.761 57.0268 712.66 57.7558 716.657 58.2308C720.654 58.7058 724.244 58.9458 724.369 57.9588C724.526 56.7128 721.251 54.3058 717.254 53.8318C713.257 53.3568 710.105 55.0018 709.895 56.2398Z" fill="#0A0A0A"/>
<path d="M714.946 71.0497C716.341 70.848 717.308 69.5542 717.106 68.1598C716.904 66.7655 715.61 65.7986 714.216 66.0002C712.822 66.2018 711.855 67.4956 712.056 68.89C712.258 70.2844 713.552 71.2513 714.946 71.0497Z" fill="#0A0A0A"/>
<path d="M679.309 61.2018C679.506 61.9758 682.452 61.4658 686.298 60.2778C690.144 59.0898 693.522 57.8528 693.236 56.8998C692.874 55.6968 689.301 54.6808 685.456 55.8678C681.61 57.0558 679 59.9838 679.31 61.2008L679.309 61.2018Z" fill="#0A0A0A"/>
<path d="M752.186 87.224C759.295 87.261 765.098 79.686 765.135 72.577C765.172 65.468 759.43 61.517 752.321 61.48L748.633 66.224L746.074 87.192L752.186 87.224Z" fill="#FF9E85"/>
<path d="M747.193 75.6439C746.008 75.7589 744.952 74.9009 744.831 73.7169C744.05 66.0669 740.766 40.4059 731.69 38.6289C724.58 37.2359 707.44 47.4349 691.471 44.5129C684.485 43.2349 677.875 45.0109 677.226 48.3109C676.969 49.6179 672.483 30.9009 683.301 16.5889C691.914 5.19386 720.354 1.78286 733.332 5.40086C769.266 15.4199 753.798 63.0179 753.798 63.0179L752.503 73.4289C752.378 74.4339 751.573 75.2179 750.564 75.3159L747.193 75.6439Z" fill="#0C0C0C"/>
<path d="M707.962 16.5665C709.522 8.80977 706.514 1.66245 701.245 0.602448C695.975 -0.457553 690.438 4.97116 688.878 12.7279C687.318 20.4845 690.325 27.6319 695.595 28.6919C700.864 29.7519 706.401 24.3232 707.962 16.5665Z" fill="#0C0C0C"/>
<path d="M633.926 219.798C635.274 235.631 644.829 334.408 646.125 353.91H821.7C822.709 336.321 827.238 259.41 831.064 225.015C834.716 192.194 839.834 177.258 835.628 167.058C828.21 149.069 804.598 141.035 788.609 138.87C778.845 137.548 764.16 136.601 764.16 136.601C764.16 136.601 762.917 161.754 733.269 163.154C692.909 165.058 695.605 136.601 695.405 136.601C688.867 136.601 653.277 141.356 644.378 147.156C631.809 155.348 628.094 166.513 627.947 176.77C627.778 188.58 632.395 201.841 633.926 219.798Z" fill="#5865F2"/>
<path d="M642.829 314.986C642.573 314.986 642.354 314.79 642.332 314.529L635.68 238.449C635.656 238.174 635.86 237.931 636.134 237.907C636.414 237.876 636.653 238.086 636.676 238.362L643.328 314.442C643.352 314.717 643.148 314.96 642.874 314.984C642.858 314.985 642.844 314.986 642.829 314.986Z" fill="#0C0C0C"/>
<path d="M655.56 359.178L679.668 339.619L675.611 340.766C672.887 341.419 669.956 339.965 669.161 337.278C668.313 334.413 670.046 331.459 672.914 330.772L723.561 318.453L727.918 334.586C730.686 344.836 726.959 355.741 718.495 362.151L699.729 376.312C697.734 377.823 694.885 377.859 693.025 376.185C691.229 374.568 690.863 372.143 691.738 370.189C691.66 370.162 691.584 370.124 691.526 370.057C691.417 369.929 691.394 369.764 691.435 369.613L687.978 372.231C685.745 373.922 682.476 373.766 680.671 371.624C679.007 369.65 679.084 366.845 680.652 364.97C680.596 364.963 680.549 364.943 680.498 364.917L679.077 365.993C677.082 367.504 674.232 367.539 672.373 365.865C670.198 363.906 670.113 360.761 671.799 358.706C671.779 358.676 671.761 358.645 671.748 358.612L661.709 366.757C659.616 368.455 656.543 368.135 654.844 366.042C653.146 363.949 653.466 360.876 655.559 359.177L655.56 359.178Z" fill="#FF9E85"/>
<path opacity="0.2" d="M672.362 358.899C672.414 358.88 672.463 358.853 672.508 358.815L682.167 350.79C682.373 350.619 682.402 350.312 682.23 350.106C682.059 349.9 681.752 349.872 681.546 350.043L671.887 358.068C671.681 358.239 671.652 358.546 671.824 358.752C671.958 358.914 672.175 358.966 672.362 358.899Z" fill="#0A0A0A"/>
<path opacity="0.2" d="M680.875 364.961C680.926 364.943 680.974 364.916 681.018 364.88L688.659 358.632C688.867 358.462 688.898 358.156 688.728 357.948C688.558 357.74 688.252 357.708 688.044 357.879L680.403 364.127C680.195 364.297 680.164 364.603 680.334 364.811C680.468 364.975 680.686 365.029 680.875 364.961Z" fill="#0A0A0A"/>
<path opacity="0.2" d="M692.059 370.198C692.113 370.179 692.165 370.149 692.211 370.109L695.751 367.074C695.955 366.9 695.978 366.593 695.804 366.389C695.629 366.184 695.323 366.159 695.118 366.336L691.578 369.371C691.374 369.545 691.351 369.852 691.525 370.056C691.66 370.214 691.874 370.264 692.058 370.197L692.059 370.198Z" fill="#0A0A0A"/>
<path d="M868.632 311.271L868.446 310.45L836.403 168.707L773.003 183.04L798.015 293.679L697.814 318.303L710.145 374.842L843.672 349.37C843.977 349.31 844.416 349.22 844.721 349.151C861.784 345.294 872.49 328.334 868.632 311.271Z" fill="#5865F2"/>
<path d="M697.325 318.407C697.269 318.143 697.433 317.883 697.695 317.819L797.447 293.321L781.227 221.685C781.165 221.416 781.334 221.148 781.604 221.087C781.874 221.025 782.141 221.195 782.202 221.464L798.53 293.579C798.591 293.845 798.426 294.11 798.162 294.175L698.403 318.674C698.403 318.674 699.071 321.59 699.26 322.569C699.322 322.889 699.011 323.058 698.898 323.086C698.776 323.116 698.395 323.154 698.293 322.682C698.063 321.611 697.324 318.408 697.324 318.408L697.325 318.407Z" fill="#0C0C0C"/>
<path d="M701.235 397.357L662.71 278.934C661.321 274.665 657.342 271.775 652.853 271.775H495.901C488.858 271.775 483.865 278.649 486.044 285.347L524.569 403.77C525.958 408.039 529.937 410.929 534.426 410.929H691.378C698.421 410.929 703.414 404.055 701.235 397.357Z" fill="#0F172A"/>
<path opacity="0.2" d="M701.235 397.357L662.71 278.934C661.321 274.665 657.342 271.775 652.853 271.775H495.901C488.858 271.775 483.865 278.649 486.044 285.347L524.569 403.77C525.958 408.039 529.937 410.929 534.426 410.929H691.378C698.421 410.929 703.414 404.055 701.235 397.357Z" fill="white"/>
<path d="M589.118 357.813C598.209 357.813 605.579 350.443 605.579 341.352C605.579 332.261 598.209 324.891 589.118 324.891C580.027 324.891 572.657 332.261 572.657 341.352C572.657 350.443 580.027 357.813 589.118 357.813Z" fill="white"/>
<path d="M103.83 485.544C139.661 485.544 168.707 456.498 168.707 420.667C168.707 384.836 139.661 355.79 103.83 355.79C67.9995 355.79 38.9531 384.836 38.9531 420.667C38.9531 456.498 67.9995 485.544 103.83 485.544Z" fill="#0F172A"/>
<path d="M90.3616 412.202C88.5826 412.202 87.1406 410.76 87.1406 408.981V393.388C87.1406 384.767 94.6276 377.752 103.83 377.752C113.032 377.752 120.519 384.766 120.519 393.388V407.909C120.519 409.688 119.077 411.13 117.298 411.13C115.519 411.13 114.077 409.688 114.077 407.909V393.388C114.077 388.318 109.48 384.193 103.829 384.193C98.1776 384.193 93.5806 388.318 93.5806 393.388V408.981C93.5806 410.76 92.1386 412.202 90.3596 412.202H90.3616Z" fill="white"/>
<path d="M124.376 406.285H83.2838C80.8875 406.285 78.9448 408.228 78.9448 410.624V449.33C78.9448 451.726 80.8875 453.669 83.2838 453.669H124.376C126.772 453.669 128.715 451.726 128.715 449.33V410.624C128.715 408.228 126.772 406.285 124.376 406.285Z" fill="white"/>
<path d="M99.7388 426.145C99.7388 427.768 100.68 429.159 102.043 429.827V436.113C102.043 437.108 102.848 437.899 103.829 437.899C104.811 437.899 105.615 437.108 105.615 436.113V429.827C106.979 429.159 107.919 427.768 107.919 426.145C107.919 423.882 106.092 422.054 103.828 422.054C101.564 422.054 99.7368 423.881 99.7368 426.145H99.7388Z" fill="#0F172A"/>
<path d="M418.467 215.773H161.36C155.223 215.773 150.247 220.748 150.247 226.886V262.93C150.247 269.067 155.223 274.043 161.36 274.043H418.467C424.605 274.043 429.58 269.067 429.58 262.93V226.886C429.58 220.748 424.605 215.773 418.467 215.773Z" fill="white"/>
<path d="M418.466 275.042H161.36C154.681 275.042 149.247 269.608 149.247 262.929V226.886C149.247 220.207 154.681 214.773 161.36 214.773H418.466C425.145 214.773 430.579 220.207 430.579 226.886V262.929C430.579 269.608 425.145 275.042 418.466 275.042ZM161.36 216.772C155.783 216.772 151.247 221.309 151.247 226.885V262.928C151.247 268.505 155.784 273.041 161.36 273.041H418.466C424.043 273.041 428.579 268.504 428.579 262.928V226.885C428.579 221.308 424.042 216.772 418.466 216.772H161.36Z" fill="#0F172A"/>
<path d="M418.467 299.047H161.36C155.223 299.047 150.247 304.022 150.247 310.16V346.204C150.247 352.342 155.223 357.317 161.36 357.317H418.467C424.605 357.317 429.58 352.342 429.58 346.204V310.16C429.58 304.022 424.605 299.047 418.467 299.047Z" fill="white"/>
<path d="M418.466 358.316H161.36C154.681 358.316 149.247 352.882 149.247 346.203V310.16C149.247 303.481 154.681 298.047 161.36 298.047H418.466C425.145 298.047 430.579 303.481 430.579 310.16V346.203C430.579 352.882 425.145 358.316 418.466 358.316ZM161.36 300.046C155.783 300.046 151.247 304.583 151.247 310.159V346.202C151.247 351.779 155.784 356.315 161.36 356.315H418.466C424.043 356.315 428.579 351.778 428.579 346.202V310.159C428.579 304.582 424.042 300.046 418.466 300.046H161.36Z" fill="#0F172A"/>
<path d="M289.913 172.43C322.881 172.43 349.607 145.704 349.607 112.736C349.607 79.7679 322.881 53.042 289.913 53.042C256.945 53.042 230.219 79.7679 230.219 112.736C230.219 145.704 256.945 172.43 289.913 172.43Z" fill="white"/>
<path d="M289.913 173.43C256.446 173.43 229.219 146.203 229.219 112.736C229.219 79.269 256.447 52.042 289.913 52.042C323.379 52.042 350.607 79.27 350.607 112.736C350.607 146.202 323.38 173.43 289.913 173.43ZM289.913 54.042C257.549 54.042 231.219 80.372 231.219 112.736C231.219 145.1 257.549 171.43 289.913 171.43C322.277 171.43 348.607 145.1 348.607 112.736C348.607 80.372 322.277 54.042 289.913 54.042Z" fill="#0F172A"/>
<path opacity="0.5" d="M348.281 112.736C348.281 127.128 343.067 140.284 334.451 150.456C323.685 137.926 307.722 129.984 289.913 129.984C272.104 129.984 256.14 137.926 245.375 150.472C236.759 140.284 231.545 127.128 231.545 112.736C231.545 80.5042 257.681 54.3682 289.913 54.3682C322.145 54.3682 348.281 80.5042 348.281 112.736Z" fill="#5865F2"/>
<path d="M334.451 150.455C323.75 163.098 307.77 171.104 289.913 171.104C272.056 171.104 256.092 163.098 245.375 150.471C256.141 137.925 272.088 129.983 289.913 129.983C307.738 129.983 323.686 137.925 334.451 150.455Z" fill="white"/>
<path d="M289.914 119.093C302.944 119.093 313.507 108.53 313.507 95.5002C313.507 82.4701 302.944 71.9072 289.914 71.9072C276.884 71.9072 266.321 82.4701 266.321 95.5002C266.321 108.53 276.884 119.093 289.914 119.093Z" fill="white"/>
<g opacity="0.4">
<path d="M171.889 335.278C175.808 335.278 178.985 332.101 178.985 328.182C178.985 324.263 175.808 321.086 171.889 321.086C167.97 321.086 164.793 324.263 164.793 328.182C164.793 332.101 167.97 335.278 171.889 335.278Z" fill="#0F172A"/>
<path d="M194.086 335.278C198.005 335.278 201.182 332.101 201.182 328.182C201.182 324.263 198.005 321.086 194.086 321.086C190.167 321.086 186.99 324.263 186.99 328.182C186.99 332.101 190.167 335.278 194.086 335.278Z" fill="#0F172A"/>
<path d="M216.283 335.278C220.202 335.278 223.379 332.101 223.379 328.182C223.379 324.263 220.202 321.086 216.283 321.086C212.364 321.086 209.187 324.263 209.187 328.182C209.187 332.101 212.364 335.278 216.283 335.278Z" fill="#0F172A"/>
<path d="M238.48 335.278C242.399 335.278 245.576 332.101 245.576 328.182C245.576 324.263 242.399 321.086 238.48 321.086C234.561 321.086 231.384 324.263 231.384 328.182C231.384 332.101 234.561 335.278 238.48 335.278Z" fill="#0F172A"/>
<path d="M260.676 335.278C264.595 335.278 267.772 332.101 267.772 328.182C267.772 324.263 264.595 321.086 260.676 321.086C256.757 321.086 253.58 324.263 253.58 328.182C253.58 332.101 256.757 335.278 260.676 335.278Z" fill="#0F172A"/>
<path d="M282.873 335.278C286.792 335.278 289.969 332.101 289.969 328.182C289.969 324.263 286.792 321.086 282.873 321.086C278.954 321.086 275.777 324.263 275.777 328.182C275.777 332.101 278.954 335.278 282.873 335.278Z" fill="#0F172A"/>
<path d="M305.07 335.278C308.989 335.278 312.166 332.101 312.166 328.182C312.166 324.263 308.989 321.086 305.07 321.086C301.151 321.086 297.974 324.263 297.974 328.182C297.974 332.101 301.151 335.278 305.07 335.278Z" fill="#0F172A"/>
</g>
</g>
</g>
<defs>
<clipPath id="clip0_181_860">
<rect width="891" height="863" fill="white"/>
</clipPath>
</defs>
</svg>
