<svg width="3196" height="2000" viewBox="0 0 3196 2000" fill="none" xmlns="http://www.w3.org/2000/svg">
<mask id="mask0_182_1355" style="mask-type:luminance" maskUnits="userSpaceOnUse" x="0" y="0" width="3196" height="2000">
<path d="M3195.7 0H0V2000H3195.7V0Z" fill="white"/>
</mask>
<g mask="url(#mask0_182_1355)">
<path opacity="0.3" d="M368.897 1712.18C368.897 1712.18 31.6796 1353.68 261.1 936.102C438.088 613.956 866.248 671.356 1085.94 807.618C1179.51 865.653 1380.55 759.22 1635.51 436.027C1931.5 60.8333 3077.43 289.754 2879.52 1006.62C2783.75 1353.53 3170.99 1366.14 2973.68 1712.91L368.897 1712.18Z" fill="#64748B"/>
<path d="M2769.13 1709.31H1913.61C1827.98 1709.31 1758.56 1639.89 1758.56 1554.25V813.57C1758.56 734.931 1773.98 658.596 1804.39 586.685C1833.75 517.273 1875.76 454.954 1929.26 401.459C1982.75 347.964 2045.07 305.954 2114.48 276.596C2176.45 250.387 2161.63 234.504 2228.81 230.835C2239.59 230.246 2330.49 230.758 2341.37 230.758C2420.01 230.758 2496.35 246.18 2568.26 276.596C2637.67 305.955 2699.99 347.964 2753.48 401.459C2806.98 454.954 2848.99 517.273 2878.35 586.685C2908.76 658.596 2924.19 734.931 2924.19 813.57V1554.25C2924.18 1639.89 2854.76 1709.31 2769.13 1709.31ZM1940.69 844.458H2742.06V813.57C2742.06 592.632 2562.31 412.886 2341.37 412.886C2120.43 412.886 1940.69 592.632 1940.69 813.57V844.458Z" fill="#4F75BA"/>
<path d="M2665.92 1709.31H1810.41C1724.77 1709.31 1655.35 1639.89 1655.35 1554.25V813.57C1655.35 734.931 1670.77 658.596 1701.19 586.685C1730.55 517.273 1772.56 454.954 1826.05 401.459C1879.55 347.964 1941.87 305.954 2011.28 276.596C2083.19 246.18 2159.52 230.758 2238.16 230.758C2316.8 230.758 2393.14 246.18 2465.05 276.596C2534.46 305.955 2596.78 347.964 2650.28 401.459C2703.77 454.954 2745.78 517.273 2775.14 586.685C2805.56 658.596 2820.98 734.931 2820.98 813.57V1554.25C2820.98 1639.89 2751.56 1709.31 2665.92 1709.31ZM1837.48 844.458H2638.85V813.57C2638.85 592.632 2459.1 412.886 2238.16 412.886C2017.23 412.886 1837.48 592.632 1837.48 813.57V844.458Z" fill="#739AF0"/>
<path d="M2310.28 1134.73C2310.28 1116.74 2303.67 1100.29 2292.77 1087.66C2282.77 1072.82 2262.08 1062.62 2238.16 1062.62C2214.25 1062.62 2193.56 1072.82 2183.56 1087.66C2172.66 1100.29 2166.05 1116.74 2166.05 1134.73C2166.05 1167.06 2187.32 1194.42 2216.63 1203.57V1312.79C2216.63 1321.6 2226.27 1328.74 2238.16 1328.74C2250.06 1328.74 2259.7 1321.6 2259.7 1312.79V1203.57C2289.01 1194.42 2310.28 1167.06 2310.28 1134.73Z" fill="#4F75BA"/>
<path d="M1279.67 1042.47C1278.3 1051.73 1267.73 1062.45 1256.45 1070.49C1244.31 1079.14 1239.44 1088.02 1235.14 1092.46C1233.54 1094.28 1232.56 1095.28 1232.56 1095.28L1219.6 1080.21C1219.6 1080.21 1219.82 1080.07 1220.2 1079.64C1223.1 1076.48 1230.45 1068.69 1235.35 1059.71C1246.09 1040.04 1261.1 1037.14 1261.1 1037.14C1261.1 1037.14 1275.46 1039.26 1279.67 1042.47Z" fill="#FFB27D"/>
<path d="M610.157 1231.59L618.916 1238.7C618.916 1238.7 642.877 1230.11 648.284 1258.58C648.284 1258.58 649.724 1270.72 642.037 1270.74C634.351 1270.76 637.523 1269.41 626.637 1269.73C615.752 1270.05 606.731 1264.31 605.137 1255.48L599.93 1248L610.157 1231.59Z" fill="#EA8E50"/>
<path d="M609.165 1246.86C616.153 1239.56 615.59 1234.17 615.59 1234.17C615.59 1234.17 534.672 1167.92 526.465 1162.52C520.873 1158.84 464.489 1104.83 433.424 1073.8C418.48 1058.88 402.491 1064.03 382.909 1069.64L366.783 1074.27C347.311 1079.86 342.247 1107.09 358.224 1120.33C403.221 1157.6 478.075 1199.52 492.081 1208.33C526.85 1230.2 594.908 1256.19 594.908 1256.19C594.908 1256.19 603.165 1253.12 609.165 1246.86Z" fill="#292A2E"/>
<path d="M701.508 1653.88C701.508 1653.88 721.146 1668.59 751.237 1660.82C751.237 1660.82 775.497 1655.29 780.819 1667.39C780.819 1667.39 743.61 1686.29 734.196 1691.46C727.099 1695.36 719.694 1701.51 714.459 1706.26C710.315 1710.02 703.862 1709.51 700.33 1705.17C698.693 1703.16 696.82 1700.76 694.768 1697.98C689.031 1690.21 675.664 1665.09 675.664 1665.09L701.508 1653.88Z" fill="#233862"/>
<path d="M713.034 1646.41C713.034 1646.41 701.076 1673.98 673.475 1668.91C673.475 1668.91 617.151 1622.39 578.516 1574.07C565.968 1558.38 555.284 1542.5 549.006 1527.96C523.386 1468.64 454.237 1380.17 410.272 1335.33L520.27 1295.54C520.27 1295.54 555.503 1366.42 602.382 1453.47C636.165 1516.2 675.987 1587.33 713.034 1646.41Z" fill="#5865F2"/>
<path d="M602.382 1453.47L578.516 1574.07C565.968 1558.38 555.284 1542.5 549.006 1527.96C523.386 1468.64 454.237 1380.17 410.272 1335.33L520.27 1295.54C520.27 1295.54 555.503 1366.42 602.382 1453.47Z" fill="#5865F2"/>
<path d="M512.47 1669.88C512.47 1669.88 511.271 1691.88 537.942 1694.82C537.942 1694.82 553.183 1694.9 553.226 1708.9L475.708 1709.15C475.708 1709.15 473.458 1703.5 472.912 1691.4C472.492 1682.11 481.916 1657.82 481.916 1657.82L512.47 1669.88Z" fill="#233862"/>
<path d="M484.192 1295.54C484.192 1295.54 533.195 1349.39 564.301 1446.4C581.226 1499.18 533.281 1631.88 523.934 1677.98C523.934 1677.98 491.771 1680.71 469.78 1672.21C469.78 1672.21 468.108 1576.98 480.97 1503.58C488.168 1462.51 416.45 1415.73 385.113 1341.51C363.793 1291.02 389.728 1291.87 421.602 1290.66L484.192 1295.54Z" fill="#5865F2"/>
<path d="M427.624 1055.31C400.36 1070.71 344.545 1056.51 344.545 1056.51C344.545 1056.51 367.212 1030.6 356.912 988.864L378.319 999.735L401.312 1011.41C401.312 1011.41 402.799 1018.78 403.833 1032.02C404.095 1035.43 404.332 1039.24 404.494 1043.4C418.494 1047.64 427.624 1055.31 427.624 1055.31Z" fill="#FFB07B"/>
<path d="M527.598 1292.76C527.598 1297.55 522.077 1299.85 520.905 1300.08C509.908 1302.09 479.204 1314.03 451.545 1316.77C428.255 1319.21 406.633 1316.89 382.877 1312.12C379.731 1311.49 372.346 1309.5 371.821 1306.49C371.166 1303.2 280.191 1121.03 350.913 1042.78C352.573 1040.94 366.534 1044.25 379.301 1047.28C391.092 1050.07 401.906 1048.51 411.563 1044.64L423.536 1050.94C438.239 1059.13 466.06 1088.24 469.314 1111.08C470.967 1122.7 477.609 1131.3 479.532 1141.52C480.245 1145.29 480.973 1148.99 481.717 1152.58C483.166 1159.64 484.659 1166.36 486.195 1172.74C490.354 1190.02 494.745 1204.89 499.057 1217.74C503.645 1231.38 508.145 1242.72 512.166 1252.21C517.38 1264.52 521.785 1273.72 524.538 1280.76C526.484 1285.72 527.598 1289.61 527.598 1292.76Z" fill="#292A2E"/>
<path d="M524.538 1280.76C396.116 1220.25 351.641 1104.07 351.641 1104.07C351.641 1104.07 455.98 1142.56 481.717 1152.58C483.166 1159.64 484.659 1166.36 486.195 1172.74C490.354 1190.02 494.745 1204.89 499.057 1217.73C503.645 1231.37 508.145 1242.72 512.166 1252.21C517.379 1264.52 521.785 1273.72 524.538 1280.76Z" fill="#292A2E"/>
<path d="M737.232 1260.67H666.333C598.327 1260.67 543 1205.34 543 1137.33V906.333C543 838.327 598.327 783 666.333 783H737.232C805.238 783 860.565 838.327 860.565 906.333V1137.33C860.565 1205.34 805.238 1260.67 737.232 1260.67ZM666.333 855.85C638.496 855.85 615.85 878.496 615.85 906.334V1137.33C615.85 1165.17 638.497 1187.82 666.333 1187.82H737.232C765.069 1187.82 787.716 1165.17 787.716 1137.33V906.333C787.716 878.496 765.069 855.849 737.232 855.849L666.333 855.85Z" fill="#F99746"/>
<path d="M1480.75 1064.38H830.599V979.285H1480.75C1504.25 979.285 1523.3 998.334 1523.3 1021.83C1523.3 1045.33 1504.25 1064.38 1480.75 1064.38Z" fill="#F99746"/>
<path d="M1433.32 1248.15C1414.46 1248.15 1399.17 1232.87 1399.17 1214.01V1047.25H1467.47V1214.01C1467.47 1232.87 1452.18 1248.15 1433.32 1248.15Z" fill="#F99746"/>
<path d="M599.674 1245.69L610.771 1249.76C610.771 1249.76 632.994 1234.05 646.83 1259.61C646.83 1259.61 651.835 1270.77 643.912 1273.19C635.99 1275.62 638.872 1273.34 627.736 1277.04C616.601 1280.75 605.632 1278.08 601.426 1270.13L593.883 1264.59L599.674 1245.69Z" fill="#FFB07B"/>
<path d="M608.807 1261.39C612.91 1250.68 614.783 1245.84 614.783 1245.84C614.783 1245.84 530.929 1177.49 522.385 1171.62C516.564 1167.63 458.601 1124.3 430.341 1090.54C416.322 1073.79 394.22 1066.13 372.845 1070.61L355.243 1074.31C333.988 1078.76 327.081 1105.67 343.569 1119.8C390.005 1159.61 468.328 1205.78 482.931 1215.39C519.183 1239.23 599.368 1272.64 599.368 1272.64C599.368 1272.64 605.584 1269.8 608.807 1261.39Z" fill="#292A2E"/>
<path d="M403.833 1032.02C377.022 1033.53 359.587 1011.39 359.587 1011.39C359.587 1011.39 371.71 1004.68 378.319 999.734L401.312 1011.41C401.312 1011.41 402.799 1018.78 403.833 1032.02Z" fill="#EA8E50"/>
<path d="M415.254 1004.5C415.254 1004.5 374.632 1033.65 356.867 1008.07C339.102 982.493 321.894 969.031 347.08 949.336C372.266 929.642 384.138 935.864 392.144 942.959C400.15 950.054 425.365 996.253 415.254 1004.5Z" fill="#FFB07B"/>
<path d="M396.436 919.859C394.979 910.028 391.702 903.109 391.702 903.109C391.702 903.109 389.153 913.669 369.854 912.212C350.555 910.756 319.967 914.11 309.772 936.102C309.124 937.501 308.545 938.942 308.031 940.416C306.186 935.54 305.741 928.234 305.741 928.234C302.074 937.701 305.741 949.544 305.741 949.544H305.743C305.687 949.889 305.642 950.235 305.593 950.581C301.333 954.182 297.756 965.376 297.756 965.376C299.042 962.255 302.177 960.217 304.971 958.962C304.885 976.075 311.825 992.804 324.005 997.784C341.816 1005.07 341.674 999.511 359.588 1011.39C359.588 1011.39 364.394 1005.43 361.116 1001.43C357.839 997.42 345.458 991.594 352.377 985.768C359.296 979.942 361.844 986.496 364.394 982.491C366.943 978.486 354.198 966.833 370.583 955.909C386.968 944.984 397.893 929.69 396.436 919.859Z" fill="#233862"/>
<path d="M1107.98 1686.12L1093.01 1691.7C1093.01 1691.7 1028 1601.53 1020 1522.2C1018.57 1508.04 1019.05 1494.32 1022.14 1481.65C1022.14 1481.65 1021.5 1478.02 1020.39 1471.6C1019.88 1468.61 1019.24 1465.01 1018.52 1460.88C1016.41 1448.77 1013.5 1432.2 1010.17 1413.33C1002.53 1369.91 992.615 1314.41 984.917 1273.61L988.951 1272.32L1032.59 1258.24L1041.6 1229.6L1074.1 1221.04C1074.1 1221.04 1081.35 1235.24 1087.84 1302.31C1089.04 1311.11 1090.13 1320.82 1090.95 1331.34C1093.48 1363.45 1093.66 1403.29 1087.85 1448.83C1086.36 1460.49 1084.48 1472.52 1082.15 1484.89C1080.44 1493.95 1080.18 1506.31 1080.9 1520.49C1084.17 1585.34 1107.98 1686.12 1107.98 1686.12Z" fill="#292A2E"/>
<path d="M1090.94 1331.34L1020.39 1471.6C1019.88 1468.61 1019.24 1465.01 1018.52 1460.88C1016.41 1448.77 1013.5 1432.2 1010.17 1413.33C1002.52 1369.91 992.615 1314.41 984.917 1273.61L988.949 1272.32L1032.58 1258.24L1041.6 1229.6L1074.09 1221.04C1074.09 1221.04 1081.35 1235.24 1087.84 1302.31C1089.04 1311.11 1090.13 1320.82 1090.94 1331.34Z" fill="#292A2E"/>
<path d="M1059.91 1239.04L1058.27 1225.04C1030.91 1232.3 957.794 1204.73 957.794 1204.73C957.794 1204.73 931.284 1228.03 934.765 1283.89C936.463 1311.15 939.568 1427 942.809 1461.28C943.981 1473.71 945.005 1482.55 945.424 1486.08C945.433 1486.1 945.434 1486.11 945.434 1486.11C945.562 1487.19 945.185 1488.21 944.638 1489.15C939.866 1497.25 935.916 1505.68 932.674 1514.31C900.864 1599.08 937.575 1703.47 937.575 1703.47L947.101 1699.63C947.101 1699.63 967.991 1583.45 984.965 1532.13C987.847 1523.42 990.609 1516.58 993.14 1512.49C1000.52 1500.58 1007.37 1481.12 1013.59 1457.97C1025.34 1414.21 1034.79 1357.27 1041.09 1313.33C1041.96 1313.37 1059.91 1239.04 1059.91 1239.04Z" fill="#292A2E"/>
<path d="M1226.85 1065.24C1235.12 1068.53 1243.21 1075.02 1251.21 1083.1C1251.21 1083.1 1204.54 1164.5 1177.68 1176.33C1162.93 1182.83 1116.79 1133.54 1107.26 1105.91C1104.93 1099.16 1113.53 1076.58 1110.71 1071.83C1106.98 1065.57 1105.18 1059.44 1104.44 1054.17C1104.26 1053.37 1104.09 1052.57 1104.15 1051.69C1103.26 1043.29 1104.99 1037.57 1104.99 1037.57C1106.06 1034.83 1109.08 1033.65 1113.56 1033.72L1115.15 1033.71C1139.32 1047.94 1171.07 1117.78 1176.31 1119.42C1189.97 1102.12 1226.85 1065.24 1226.85 1065.24Z" fill="#5865F2"/>
<path d="M1112.18 1069.15C1103.59 1073.14 1093.22 1075.85 1080.67 1076.54C1033.62 1079.11 1022.94 1037.87 1021 1010.5C1027.78 1008.05 1033.72 1008.28 1037.14 1008.46C1040.48 1008.64 1043.96 1008.99 1046.83 1009.34C1052.59 1006.33 1062.93 991.732 1068.9 967.305L1070.93 968.246L1104.87 984.205C1104.87 984.205 1101.27 995.252 1098.61 1005.82C1096.53 1014.09 1095.04 1022.09 1096.28 1024.32C1098.96 1025.41 1100.56 1026.09 1100.56 1026.09C1100.56 1026.09 1100.56 1026.11 1100.57 1026.13C1100.92 1027 1108.3 1045.8 1112.18 1069.15Z" fill="#FFB27D"/>
<path d="M1123.95 1100.02C1123.59 1100.96 1123.2 1101.88 1122.78 1102.82C1110.86 1128.48 1088.81 1234.78 1088.81 1234.78C1091.95 1253.89 945.179 1231.03 944.8 1213.63C939.631 1195.17 963.141 1165.53 976.399 1150.66C978.06 1148.79 979.551 1146.78 980.846 1144.67C984.121 1139.37 986.199 1133.38 986.858 1127.12C989.462 1102.46 979.77 1045.57 982.384 1034.58C983.406 1030.28 1002.84 1054.87 1005.16 1052.4C1007.72 1049.71 1009.32 1046.96 1009.5 1043.86C1009.63 1041.51 1009.56 1039.11 1009.32 1036.7C1009.21 1035.56 1009.06 1034.43 1008.89 1033.29C1007.06 1021.35 984.227 1026.45 984.227 1026.45C992.594 1006.31 1037.15 1007.91 1037.14 1008.46C1037.13 1009.01 1037.12 1009.71 1037.1 1011.75C1037.03 1019.95 1037.1 1041 1039.73 1044.98C1043.02 1049.94 1103.15 1071.68 1106.33 1064.95C1109.45 1058.33 1100.89 1027.3 1100.57 1026.13C1100.56 1026.1 1100.56 1026.09 1100.56 1026.09C1107.14 1028.76 1115.15 1033.71 1115.15 1033.71C1122.7 1048.85 1133.33 1075.13 1123.95 1100.02Z" fill="#5865F2"/>
<path d="M1083.44 878.291C1083.37 876.251 1081.79 854.273 1048.32 853.125C1048.32 853.125 1064.78 855.088 1067.62 862.325C1067.62 862.325 1056.41 853.382 1047.28 856.259C1038.16 859.135 1032.79 875.128 1032.74 880.388C1032.69 885.648 1037.76 902.605 1043.55 904.047C1045.75 904.593 1048.27 904.447 1050.57 904.055C1049.03 906.462 1047.52 909.117 1046.07 912.082C1032.71 939.503 1046.49 966.302 1057.8 963.341C1065.05 961.442 1067.1 973.819 1067.1 973.819L1137.57 916.773C1137.57 916.773 1111.69 863.219 1083.44 878.291Z" fill="#292A2E"/>
<path d="M1104.88 984.212C1104.88 984.212 1101.27 995.248 1098.61 1005.83C1078.76 1000.29 1072.74 979.435 1070.93 968.254L1104.88 984.212Z" fill="#ED985F"/>
<path d="M1109.05 995.897C1109.05 995.897 1061.58 984.91 1068.88 955.453C1076.18 925.996 1074.96 904.739 1105.58 910.508C1136.2 916.277 1139.28 928.971 1139.24 939.396C1139.19 949.82 1121.59 997.995 1109.05 995.897Z" fill="#FFB27D"/>
<path d="M1141.91 922.671C1136.8 911.994 1130.8 912.564 1127.04 914.457C1104.73 893.819 1082.86 910.679 1082.86 910.679C1074.43 931.022 1056.18 939.335 1056.18 939.335C1056.18 939.335 1063.48 946.802 1084.61 946.638C1091.07 946.588 1097.56 943.623 1103.47 939.539C1092.07 951.014 1078.71 958 1078.71 958C1105.17 952.936 1122.92 922.305 1124.73 919.051C1126.98 922.361 1131.26 929.407 1131.62 935.357C1132.11 943.443 1129.33 959.144 1133.96 959.739C1133.96 959.739 1149.56 938.683 1141.91 922.671Z" fill="#292A2E"/>
<path d="M992.96 1711.25H917.577C917.577 1711.25 915.77 1699.76 919.708 1691.05C923.48 1682.68 929.39 1678.88 927.975 1668.76C932.766 1673.69 940.572 1679.22 951.471 1677.75C952.806 1679.92 960.091 1691.5 964.551 1694.71C969.476 1698.25 991.443 1696.98 992.96 1711.25Z" fill="#233862"/>
<path d="M1154.82 1711.25H1079.43C1079.43 1711.25 1076.62 1699.23 1081.57 1691.05C1085.95 1683.81 1084.27 1679.69 1081.02 1673.7C1084.44 1675.09 1088.86 1676.37 1093.72 1676.09C1097.48 1675.87 1101.45 1674.17 1104.93 1672.14C1108.17 1675.84 1122.07 1691.59 1126.41 1694.71C1131.33 1698.25 1153.3 1696.98 1154.82 1711.25Z" fill="#233862"/>
<path d="M1257.36 1054.63H1372.1L1365.72 1010.13L1263.28 1014.24L1257.36 1054.63Z" fill="#F99746"/>
<path d="M1277.51 969.53C1272.16 974.86 1272.28 991.939 1261 999.978C1248.86 1008.63 1244 1017.51 1239.69 1021.95C1238.1 1023.77 1237.12 1024.77 1237.12 1024.77L1224.16 1009.7C1224.16 1009.7 1224.37 1009.56 1224.75 1009.13C1227.65 1005.97 1235.01 998.175 1239.91 989.203C1250.64 969.531 1265.66 966.628 1265.66 966.628C1265.66 966.628 1273.29 966.32 1277.51 969.53Z" fill="#FFB27D"/>
<path d="M1232.09 997.853L1251.21 1019.25C1251.21 1019.25 1200.11 1063.74 1189.44 1072.98C1181.86 1079.43 1174.7 1084.69 1168.87 1087.71C1168.29 1088.02 1167.77 1088.24 1167.09 1088.5C1152.08 1095.07 1119.69 1094.34 1087.32 1089.55C1082.84 1088.9 1078.43 1088.15 1074.11 1087.45C1058.15 1084.67 1042.96 1081.02 1030.44 1076.84C1022.94 1074.41 1016.3 1071.84 1011.21 1069.11C1009.39 1068.18 1007.67 1067.3 1006.16 1066.29C980.846 1051.12 982.071 1037.03 982.552 1031.98C983.033 1026.92 986.675 1020.24 995.128 1017.5C1015.22 1010.98 1082.61 1036.95 1092.54 1038.83C1098.49 1040.09 1114 1045.58 1119.21 1046.54C1129.2 1048.32 1137.44 1049.47 1143.08 1049.49C1146.73 1049.53 1153.18 1047.27 1160.97 1043.83C1174.56 1037.88 1232.09 997.853 1232.09 997.853Z" fill="#5865F2"/>
<path d="M1239.6 1062.39C1238.01 1059.78 1237.85 1055.54 1237.85 1055.54C1240.06 1049.87 1244.95 1043.5 1246.77 1042.25C1248.59 1040.99 1250.98 1037.92 1251.55 1039.97C1252.12 1042.02 1249.39 1052.72 1246.2 1056.93C1243.02 1061.14 1239.6 1062.39 1239.6 1062.39Z" fill="#FFB27D"/>
<path d="M2376.3 805.662C2392.39 833.656 2412.62 844.462 2412.62 844.462H2496.78C2496.78 844.462 2364.03 784.307 2376.3 805.662Z" fill="#262626"/>
<path d="M2435.94 1023.71C2438.13 1026.22 2440.03 1026.08 2438.94 1029.08C2438.94 1029.1 2438.45 1030.57 2438.44 1030.58C2436.43 1036.13 2432.64 1040.02 2424.94 1046.21C2423.96 1047 2422.95 1047.66 2422.19 1048.33C2421.99 1048.51 2420.63 1048.78 2420.44 1048.96C2420.29 1049.09 2419.09 1051.57 2418.94 1051.7C2411.76 1058.32 2413.22 1056.4 2400.32 1069.83C2385.6 1085.14 2386.03 1083.56 2383.15 1082.17C2380.71 1080.98 2379.7 1078.13 2385.19 1069C2385.46 1068.56 2385.72 1068.11 2385.99 1067.67C2386.72 1066.46 2387.45 1065.22 2388.17 1064C2394.61 1053.02 2392.95 1047.87 2391.43 1031.52C2390.19 1018.24 2370.76 957.305 2370.76 957.305L2398.96 952.448C2398.96 952.448 2407.45 1000.97 2416.81 1008.44C2421.81 1012.42 2427.41 1012.47 2432.22 1015.42C2432.56 1015.63 2432.9 1015.84 2433.22 1016.05C2435.96 1017.87 2433.74 1021.19 2435.94 1023.71Z" fill="#FFB27D"/>
<path d="M2440.94 1022.26C2443.13 1024.77 2443.41 1027.58 2442.33 1030.58C2442.33 1030.59 2442.32 1030.61 2442.31 1030.62C2439.85 1036.16 2433.38 1042.32 2425.94 1048.49C2424.96 1049.3 2424.1 1050.04 2423.34 1050.73C2423.14 1050.91 2422.94 1051.08 2422.75 1051.26C2422.6 1051.4 2422.45 1051.54 2422.3 1051.67C2415.11 1058.29 2417.82 1059.81 2404.91 1073.24C2390.2 1088.55 2380.07 1088.83 2377.18 1087.43C2374.75 1086.25 2379.7 1078.13 2385.19 1069C2388.05 1067.95 2401.36 1062.54 2411.42 1049.67C2420.28 1038.36 2426.19 1023.84 2432.22 1015.42C2432.56 1015.63 2432.9 1015.84 2433.22 1016.05C2435.96 1017.87 2438.74 1019.74 2440.94 1022.26Z" fill="#5865F2"/>
<path d="M2208.31 1002.96C2206.57 1011.66 2200.93 1009.22 2187.06 1005.83C2173.2 1002.44 2176.42 1005.77 2156.69 1003.58C2136.96 1001.4 2135.17 998.266 2134.56 995.332C2134.03 992.729 2138.15 990.969 2148.61 989.764C2149.92 989.616 2151.24 989.453 2152.56 989.291C2164.37 987.81 2173.01 980.191 2183.74 973.936C2193.9 968.01 2209.05 943.866 2209.05 943.866L2236.11 946.009C2236.11 946.009 2221.91 967.574 2216.42 976.95C2213.19 982.465 2213.36 989.757 2213.76 995.388C2213.97 998.448 2208.93 999.892 2208.31 1002.96Z" fill="#FFB27D"/>
<path d="M2185.54 1008.51C2171.68 1005.12 2174.98 1009.15 2155.25 1006.96C2135.52 1004.78 2129.54 997.423 2128.94 994.489C2128.4 991.886 2138.15 990.968 2148.61 989.763L2148.7 989.964C2148.7 989.964 2160.54 998.353 2176.96 998.746C2190.34 999.071 2204.52 995.236 2213.76 995.386C2213.97 998.448 2214.17 1001.58 2213.56 1004.64C2211.81 1013.35 2199.41 1011.9 2185.54 1008.51Z" fill="#5865F2"/>
<path d="M2317.24 831.637L2342.54 899.697L2375.56 988.564C2375.56 988.564 2384.52 989.429 2393.1 986.961C2401 984.677 2410.07 978.702 2410.07 978.702C2410.07 978.702 2400.9 883.284 2383.79 828.511C2379.41 814.451 2374.5 803.079 2369.07 796.678C2342.56 765.341 2317.24 831.637 2317.24 831.637Z" fill="#262626"/>
<path d="M2342.96 723.547C2359.53 718.202 2406.79 725.065 2454.27 734.358L2464.21 717.962L2566.75 709.954C2566.75 709.954 2600.53 784.972 2582.06 832.807C2577.57 844.457 2562.88 844.452 2562.88 844.457C2562.88 844.457 2502.18 844.455 2482.36 844.455C2431.36 844.455 2374.43 809.399 2367.07 807.927C2355.01 805.516 2350.19 829.625 2338.14 854.939C2326.08 880.254 2224.83 967.046 2224.83 967.046C2224.83 967.046 2209.26 967.2 2202.83 964.789C2195.92 962.196 2193.39 958.828 2193.39 958.828C2193.39 958.828 2305.59 735.602 2342.96 723.547Z" fill="#262626"/>
<path d="M2464.81 576.744C2501.33 596.851 2575.4 638.531 2575.79 638.262C2575.79 638.262 2603.02 648.522 2618.46 638.263C2644.21 621.165 2658.01 575.149 2610.93 535.549C2587.45 515.799 2570.77 510.99 2568.23 479.455C2566.86 462.346 2543.47 405.882 2504.61 411.103C2501.36 411.539 2498.09 411.852 2494.82 411.747C2490.28 411.6 2482.79 412.263 2475.1 416.839C2453.11 429.932 2410.07 568.962 2464.81 576.744Z" fill="#233862"/>
<path d="M2495.42 559.63C2495.25 559.734 2513.38 565.923 2525.5 560.555C2536.91 555.516 2545.54 536.755 2545.37 536.745C2540.19 536.505 2534.49 531.971 2530.11 502.213L2527.9 503.006L2490.76 516.369C2490.76 516.369 2493.45 528.286 2495.19 539.631C2496.66 549.157 2497.44 558.283 2495.42 559.63Z" fill="#FFB27D"/>
<path d="M2490.76 516.369C2490.76 516.369 2493.45 528.286 2495.19 539.631C2516.52 535.792 2524.89 514.539 2527.9 503.006L2490.76 516.369Z" fill="#292A2E"/>
<path d="M2485.23 528.198C2485.23 528.198 2536.04 521.378 2531.31 489.8C2526.57 458.222 2529.94 436.075 2497.3 439.094C2464.66 442.114 2460.18 455.106 2459.19 466.03C2458.21 476.953 2471.89 529.157 2485.23 528.198Z" fill="#FFB27D"/>
<path d="M2461.04 448.72C2461.04 448.72 2493.57 476.751 2515.7 479.011C2537.82 481.271 2546.2 474.169 2546.2 474.169C2546.2 474.169 2533.16 463.341 2525.31 445.866C2523 440.715 2518.11 437.181 2512.48 436.696C2496.68 435.332 2466.73 434.71 2461.04 448.72Z" fill="#233862"/>
<path d="M2481.38 446.21C2481.38 446.21 2470.49 456.731 2467.07 464.535C2463.76 472.066 2462.77 490.076 2465.4 497.231C2465.4 497.231 2448.45 464.264 2458.05 448.247C2468.23 431.262 2481.38 446.21 2481.38 446.21Z" fill="#233862"/>
<path d="M2452.63 634.482C2454.16 737.338 2453.05 715.845 2464.3 725.605C2467.01 727.955 2474.63 729.356 2484.66 730.018C2516.2 732.112 2571.64 726.915 2573.75 721.086C2581.03 700.918 2575.89 694.652 2581.96 663.776C2582.59 660.493 2583.38 656.938 2584.3 653.067C2589.36 631.86 2594.28 624.646 2576.33 590.576C2560.05 559.715 2543.13 534.667 2541.61 535.571C2498.66 561.07 2495.19 539.637 2495.19 539.637C2495.19 539.637 2451.87 584.311 2452.63 634.482Z" fill="#5865F2"/>
<path d="M2342.54 899.696L2375.56 988.563C2375.56 988.563 2384.52 989.428 2393.1 986.96C2401 984.676 2410.07 978.701 2410.07 978.701C2410.07 978.701 2400.9 883.283 2383.79 828.51L2342.54 899.696Z" fill="#292A2E"/>
<path d="M2495.19 539.631C2495.19 539.631 2450.99 547.125 2445.8 566.156C2440.61 585.186 2410.07 697.063 2410.07 697.063C2410.07 697.063 2432.54 701.1 2442.92 690.719C2453.3 680.339 2479.04 594.412 2479.04 594.412L2495.19 539.631Z" fill="#5865F2"/>
<path d="M2484.67 730.018C2516.2 732.112 2571.65 726.915 2573.75 721.086C2581.03 700.918 2575.89 694.652 2581.96 663.776L2566.75 620.94C2566.75 620.94 2569.27 668.641 2555.2 681.187C2541.15 693.734 2497.6 705.406 2490.76 715.889C2487.47 720.92 2485.3 725.966 2484.67 730.018Z" fill="#5865F2"/>
<path d="M2520.8 709.955C2520.8 709.955 2489.69 703.027 2484.67 705.788C2479.64 708.55 2467.37 718.605 2465.84 722.105C2464.3 725.604 2477.02 719.449 2481.15 718.339C2483.83 717.62 2490.88 720.07 2494.37 721.234C2509.05 726.128 2518.05 723.611 2518.05 723.611L2520.8 709.955Z" fill="#FFB27D"/>
<path d="M2541.64 535.549C2541.64 535.549 2583.42 538.122 2597.88 558.295C2618.24 586.691 2658.63 707.709 2635.48 723.85C2609.42 742.026 2516.85 728.605 2516.85 728.605C2516.85 728.605 2513.76 714.206 2518.05 707.241C2522.34 700.276 2591.99 689.024 2595.2 685.809C2598.42 682.595 2555.02 623.123 2555.02 613.48C2555.02 603.837 2541.64 535.549 2541.64 535.549Z" fill="#5865F2"/>
<path d="M2483.16 714.449C2483.16 714.449 2476.64 722.858 2474.5 723.862C2472.36 724.866 2470.98 724.615 2470.98 724.615L2475.38 716.708L2483.16 714.449Z" fill="#FFB27D"/>
<path d="M2484.67 705.788L2465.71 714.993C2465.71 714.993 2466.52 716.312 2468.85 716.206C2471.18 716.1 2477.07 713.947 2477.07 713.947L2484.67 705.788Z" fill="#FFB27D"/>
<path d="M2474.5 736.745H2324.56L2279.46 624.582H2429.17L2474.5 736.745Z" fill="#5865F2"/>
<path d="M2322.8 732.375H2520.8V736.745H2324.56L2322.8 732.375Z" fill="#11294A"/>
<path d="M2362.41 680.663C2361.28 676.721 2363.56 673.524 2367.5 673.524C2371.45 673.524 2375.56 676.72 2376.69 680.663C2377.82 684.606 2375.54 687.803 2371.6 687.803C2367.65 687.803 2363.54 684.607 2362.41 680.663Z" fill="white"/>
<path d="M3072.2 1715.78H198.827C196.726 1715.78 195.008 1714.06 195.008 1711.96C195.008 1709.86 196.727 1708.14 198.827 1708.14H3072.2C3074.3 1708.14 3076.02 1709.86 3076.02 1711.96C3076.02 1714.06 3074.3 1715.78 3072.2 1715.78Z" fill="#2E3552"/>
</g>
</svg>
