<svg width="500" height="500" viewBox="0 0 500 500" fill="none" xmlns="http://www.w3.org/2000/svg">
<path d="M250 477.929C380.113 477.929 485.59 417.032 485.59 341.911C485.59 266.79 380.113 205.893 250 205.893C119.887 205.893 14.4102 266.79 14.4102 341.911C14.4102 417.032 119.887 477.929 250 477.929Z" fill="#F0F0F0"/>
<path d="M201.247 444.988C246.115 444.988 282.488 423.989 282.488 398.084C282.488 372.18 246.115 351.18 201.247 351.18C156.379 351.18 120.006 372.18 120.006 398.084C120.006 423.989 156.379 444.988 201.247 444.988Z" fill="#E0E0E0"/>
<path d="M432.276 339.403L422.75 333.903C422.75 333.903 420.416 313.501 421.969 297.701C424.15 275.499 438.489 248.784 455.595 255.058C472.7 261.332 447.752 283.943 442.199 302.775C436.645 321.606 432.276 339.403 432.276 339.403Z" fill="#5865F2"/>
<path opacity="0.15" d="M432.276 339.403L422.75 333.903C422.75 333.903 420.416 313.501 421.969 297.701C424.15 275.499 438.489 248.784 455.595 255.058C472.7 261.332 447.752 283.943 442.199 302.775C436.645 321.606 432.276 339.403 432.276 339.403Z" fill="black"/>
<path d="M427.266 337.088C427.272 337.088 427.279 337.088 427.286 337.088C427.604 337.077 427.854 336.811 427.843 336.492C426.17 287.159 450.728 262.343 450.976 262.099C451.203 261.875 451.206 261.51 450.982 261.284C450.756 261.057 450.391 261.054 450.166 261.278C449.914 261.527 425 286.699 426.689 336.533C426.7 336.843 426.956 337.088 427.266 337.088Z" fill="white"/>
<path d="M438.265 342.833L431.486 338.919C431.486 338.919 430.333 324.919 437.197 307.912C443.172 293.106 457.999 280.823 465.456 283.404C472.913 285.985 472.728 291.273 469.092 296.82C465.457 302.367 443.338 315.588 438.265 342.833Z" fill="#5865F2"/>
<path d="M434.69 341.345H434.693C435.011 341.343 435.269 341.085 435.267 340.766C435.133 309.574 464.421 288.492 464.717 288.283C464.977 288.099 465.039 287.74 464.854 287.479C464.672 287.22 464.313 287.155 464.05 287.342C463.75 287.554 433.976 308.986 434.113 340.772C434.115 341.089 434.372 341.345 434.69 341.345Z" fill="white"/>
<path d="M79.66 327.146L88.456 321.21C88.456 321.21 92.328 298.164 88.731 277.921C83.673 249.46 64.045 239.989 57.041 242.963C50.037 245.937 48.54 254.426 61.608 270.675C69.318 280.261 79.39 300.648 79.66 327.146Z" fill="#5865F2"/>
<g opacity="0.15">
<path d="M79.66 327.146L88.456 321.21C88.456 321.21 92.328 298.164 88.731 277.921C83.673 249.46 64.045 239.989 57.041 242.963C50.037 245.937 48.54 254.426 61.608 270.675C69.318 280.261 79.39 300.648 79.66 327.146Z" fill="black"/>
</g>
<path d="M82.6811 315.746C82.6511 315.746 82.6221 315.745 82.5931 315.741C82.2441 315.699 81.9931 315.383 82.0351 315.033C85.2121 288.235 73.8991 259.161 61.5951 247.593C61.3391 247.353 61.3261 246.948 61.5681 246.692C61.8101 246.438 62.2131 246.423 62.4691 246.665C74.9971 258.444 86.5261 287.99 83.3011 315.183C83.2621 315.503 82.9931 315.74 82.6811 315.746Z" fill="white"/>
<path d="M56.6198 342.688C55.2238 343.526 51.1428 340.499 50.0138 339.772C48.0808 338.529 46.4998 336.745 45.4328 334.714C44.1918 332.35 43.8408 329.799 44.1638 327.151C44.3318 325.778 44.6888 324.436 45.0448 323.1C45.3948 321.788 45.7448 320.476 46.0948 319.163C46.4398 317.868 46.7888 316.529 46.5928 315.204C46.1988 312.533 43.7858 310.704 41.5938 309.127C39.1698 307.384 36.6368 305.071 36.5878 301.847C36.5498 299.36 37.7938 297.025 39.2968 295.044C40.8008 293.062 42.5958 291.303 43.9488 289.215C44.9228 287.712 45.6718 285.955 45.4738 284.175C45.3508 283.069 44.8718 282.034 44.3228 281.067C43.1438 278.99 41.6058 277.097 40.7768 274.857C39.9478 272.618 40.0058 269.811 41.7348 268.164C43.1538 266.812 45.2968 266.586 47.2538 266.677C49.0648 266.762 50.8478 267.544 52.4468 268.393C57.6188 271.139 60.6568 277.143 66.1288 279.228C68.2398 280.032 70.5378 280.173 72.7318 280.708C74.9258 281.243 77.1738 282.315 78.2238 284.315C80.2938 288.258 76.6898 293.236 78.1728 297.435C79.4848 301.151 83.1468 302.512 85.2528 305.843C86.1738 307.3 86.4128 309 86.3018 310.721C86.1138 313.633 85.7298 315.774 84.3978 319.034C83.2968 321.728 80.0268 326.903 80.0268 326.903C80.0268 326.903 56.8328 342.559 56.6198 342.688Z" fill="#5865F2"/>
<path d="M70.1383 334.396C70.1293 334.396 70.1213 334.396 70.1213 334.396C69.7603 334.388 69.4823 334.096 69.4893 333.745C70.0533 308.428 57.5953 280.73 48.7703 272.784C48.5093 272.549 48.4873 272.146 48.7233 271.884C48.9593 271.623 49.3613 271.603 49.6233 271.837C58.6253 279.943 71.3353 308.1 70.7643 333.773C70.7553 334.117 70.4783 334.389 70.1383 334.396Z" fill="white"/>
<path d="M65.4732 303.554C65.4112 303.555 65.3472 303.548 65.2852 303.529C57.1092 301.174 46.9712 300.926 46.8702 300.924C46.5182 300.916 46.2392 300.624 46.2462 300.272C46.2542 299.921 46.5152 299.638 46.8982 299.648C47.0012 299.651 57.3002 299.901 65.6382 302.304C65.9762 302.401 66.1722 302.754 66.0742 303.092C65.9932 303.368 65.7452 303.549 65.4732 303.554Z" fill="white"/>
<path d="M301.159 309.745L297.365 307.552C296.17 306.861 295.201 305.182 295.201 303.801L295.2 146.284C295.2 144.903 296.169 143.224 297.365 142.534L402.71 81.7138C403.906 81.0238 405.844 81.0238 407.04 81.7138L410.835 83.9038C412.031 84.5938 413 86.2728 413 87.6538V245.17C413 246.551 412.031 248.23 410.835 248.92L305.488 309.745C304.293 310.436 302.354 310.435 301.159 309.745Z" fill="#455A64"/>
<path d="M412.982 87.3018C412.832 86.1818 411.922 85.7718 410.832 86.4018L305.492 147.232C304.892 147.582 304.362 148.162 303.962 148.842L295.832 144.152C296.222 143.472 296.762 142.882 297.362 142.532L402.712 81.7118C403.902 81.0218 405.842 81.0218 407.042 81.7118L410.832 83.9018C411.932 84.5318 412.842 86.0018 412.982 87.3018Z" fill="#455A64"/>
<path d="M305.122 309.919C303.922 310.429 302.242 310.369 301.162 309.749L297.362 307.549C296.172 306.859 295.202 305.179 295.202 303.799V146.282C295.202 145.592 295.442 144.832 295.832 144.152L303.962 148.842C303.562 149.522 303.322 150.292 303.322 150.982V308.499C303.322 309.739 304.102 310.309 305.122 309.919Z" fill="#263238"/>
<path d="M303.323 150.98V308.496C303.323 309.877 304.292 310.436 305.488 309.746L410.835 248.921C412.031 248.231 413 246.552 413 245.171V87.653C413 86.272 412.031 85.713 410.835 86.403L305.488 147.23C304.293 147.92 303.323 149.599 303.323 150.98Z" fill="#37474F"/>
<path d="M278.722 211.022C277.362 210.212 271.052 206.622 270.722 206.432C269.722 205.822 269.362 204.342 270.292 203.342L295.202 176.622L303.322 181.282L278.422 208.012C277.522 208.972 277.812 210.362 278.722 211.022Z" fill="#455A64"/>
<path d="M303.324 181.286L278.419 208.009C277.171 209.348 278.225 211.521 280.049 211.371L303.324 209.454V181.286Z" fill="#37474F"/>
<path d="M358.161 133.202C370.439 126.113 380.392 131.86 380.392 146.037C380.392 160.214 370.439 177.453 358.161 184.542C345.883 191.631 335.93 185.884 335.93 171.707C335.931 157.529 345.884 140.29 358.161 133.202Z" fill="#5865F2"/>
<path d="M358.004 144.359C361.987 142.059 365.217 143.923 365.217 148.522C365.217 153.122 361.988 158.715 358.004 161.014C354.021 163.313 350.792 161.45 350.792 156.85C350.792 152.251 354.021 146.658 358.004 144.359Z" fill="white"/>
<path d="M372.219 168.884C372.219 161.327 366.913 158.264 360.37 162.043L356.279 164.405C349.736 168.183 344.43 177.372 344.43 184.928V186.989C345.612 187.381 346.894 187.575 348.25 187.578C351.235 187.584 354.595 186.601 358.162 184.542C363.496 181.462 368.389 176.464 372.219 170.637V168.884Z" fill="white"/>
<path d="M344.079 254.73L372.245 238.468C373.441 237.778 374.41 238.337 374.41 239.718V248.789C374.41 250.17 373.441 251.849 372.245 252.539L344.079 268.801C342.883 269.491 341.914 268.932 341.914 267.551V258.48C341.914 257.099 342.883 255.42 344.079 254.73Z" fill="#5865F2"/>
<path d="M330.294 234.466L386.029 202.288C387.464 201.46 388.627 202.131 388.627 203.788V207.164C388.627 208.821 387.464 210.836 386.029 211.664L330.295 243.842C328.86 244.67 327.697 243.999 327.697 242.342V238.966C327.696 237.309 328.86 235.294 330.294 234.466Z" fill="#FAFAFA"/>
<path d="M336.812 211.178C337.57 210.74 338.16 210.674 338.58 210.983C339 211.291 339.21 211.975 339.21 213.037C339.21 214.1 339 215.031 338.58 215.833C338.16 216.636 337.57 217.256 336.812 217.694L335.307 218.562V221.791C335.307 221.898 335.282 222.003 335.232 222.109C335.181 222.216 335.122 222.289 335.052 222.328L334.291 222.768C334.222 222.809 334.162 222.805 334.111 222.756C334.061 222.707 334.036 222.631 334.036 222.524V213.17C334.036 213.064 334.061 212.957 334.111 212.851C334.162 212.746 334.221 212.671 334.291 212.632L336.812 211.178ZM335.307 216.752L336.764 215.91C337.121 215.704 337.407 215.431 337.62 215.09C337.833 214.75 337.939 214.311 337.939 213.77C337.939 213.229 337.833 212.916 337.62 212.832C337.406 212.748 337.121 212.809 336.764 213.016L335.307 213.857V216.752Z" fill="#FAFAFA"/>
<path d="M343.404 207.371C343.504 207.313 343.58 207.31 343.63 207.363C343.681 207.417 343.725 207.514 343.762 207.657L346.067 215.478C346.073 215.503 346.076 215.535 346.076 215.574C346.076 215.68 346.051 215.786 346.001 215.892C345.951 215.998 345.892 216.072 345.822 216.111L345.145 216.502C345.02 216.574 344.931 216.584 344.881 216.531C344.83 216.478 344.797 216.419 344.777 216.351L344.373 214.978L341.401 216.695L340.997 218.535C340.978 218.623 340.943 218.723 340.894 218.834C340.843 218.945 340.756 219.036 340.63 219.109L339.953 219.5C339.884 219.539 339.824 219.535 339.774 219.486C339.723 219.438 339.699 219.361 339.699 219.256C339.699 219.217 339.702 219.182 339.709 219.149L342.013 208.668C342.051 208.481 342.094 208.334 342.145 208.223C342.195 208.113 342.27 208.028 342.371 207.97L343.404 207.371ZM343.921 213.43L342.887 209.901L341.853 214.624L343.921 213.43Z" fill="#FAFAFA"/>
<path d="M349.574 203.664C349.994 203.422 350.364 203.295 350.683 203.285C351.003 203.273 351.269 203.337 351.483 203.474C351.696 203.612 351.857 203.806 351.967 204.056C352.076 204.306 352.138 204.568 352.151 204.84C352.157 204.952 352.133 205.06 352.081 205.163C352.027 205.265 351.966 205.337 351.897 205.377L351.238 205.757C351.132 205.82 351.053 205.833 350.999 205.802C350.946 205.771 350.896 205.714 350.853 205.634C350.759 205.446 350.618 205.319 350.426 205.25C350.234 205.183 349.95 205.256 349.574 205.474C349.411 205.568 349.256 205.685 349.109 205.822C348.961 205.961 348.832 206.112 348.723 206.277C348.613 206.441 348.527 206.615 348.464 206.795C348.401 206.977 348.37 207.159 348.37 207.342C348.37 207.565 348.399 207.729 348.459 207.834C348.518 207.939 348.618 208.002 348.76 208.022C348.901 208.043 349.088 208.028 349.32 207.981C349.552 207.934 349.841 207.87 350.185 207.786C350.561 207.694 350.885 207.655 351.159 207.667C351.431 207.679 351.653 207.752 351.826 207.889C351.999 208.027 352.127 208.225 352.212 208.485C352.297 208.746 352.339 209.073 352.339 209.468C352.339 209.903 352.276 210.342 352.151 210.786C352.026 211.229 351.846 211.651 351.615 212.051C351.382 212.45 351.098 212.825 350.758 213.175C350.42 213.525 350.04 213.821 349.62 214.064C349.268 214.267 348.933 214.396 348.614 214.449C348.294 214.504 348.01 214.48 347.763 214.377C347.515 214.273 347.316 214.092 347.164 213.831C347.015 213.57 346.93 213.233 346.911 212.819C346.904 212.707 346.929 212.599 346.981 212.496C347.034 212.394 347.095 212.322 347.164 212.282L347.823 211.902C347.929 211.839 348.011 211.822 348.067 211.847C348.124 211.872 348.17 211.932 348.209 212.025C348.253 212.127 348.306 212.221 348.369 212.31C348.432 212.399 348.515 212.461 348.622 212.496C348.728 212.531 348.862 212.533 349.022 212.505C349.182 212.475 349.38 212.392 349.619 212.253C349.807 212.146 349.989 212.019 350.165 211.873C350.34 211.729 350.494 211.567 350.626 211.39C350.757 211.213 350.863 211.027 350.945 210.829C351.026 210.632 351.067 210.423 351.067 210.2C351.067 209.989 351.023 209.841 350.936 209.756C350.848 209.671 350.714 209.633 350.536 209.64C350.357 209.646 350.137 209.682 349.873 209.747C349.61 209.811 349.306 209.877 348.961 209.94C348.647 210.005 348.373 210.026 348.138 210.003C347.903 209.98 347.708 209.896 347.555 209.753C347.402 209.61 347.287 209.403 347.212 209.133C347.137 208.862 347.1 208.511 347.1 208.075C347.1 207.641 347.163 207.204 347.288 206.766C347.413 206.327 347.586 205.912 347.806 205.526C348.025 205.138 348.286 204.782 348.591 204.458C348.895 204.131 349.224 203.867 349.574 203.664Z" fill="#FAFAFA"/>
<path d="M356.137 199.875C356.558 199.633 356.928 199.506 357.247 199.495C357.567 199.484 357.834 199.547 358.048 199.684C358.26 199.822 358.421 200.016 358.531 200.266C358.641 200.517 358.701 200.779 358.714 201.05C358.72 201.163 358.697 201.271 358.644 201.373C358.59 201.476 358.529 201.548 358.46 201.587L357.801 201.968C357.694 202.03 357.615 202.044 357.562 202.013C357.509 201.981 357.46 201.924 357.417 201.844C357.322 201.658 357.181 201.529 356.989 201.46C356.798 201.393 356.514 201.466 356.137 201.684C355.974 201.779 355.821 201.895 355.673 202.033C355.525 202.172 355.396 202.322 355.286 202.487C355.176 202.652 355.091 202.825 355.028 203.006C354.965 203.187 354.933 203.369 354.933 203.553C354.933 203.776 354.963 203.939 355.023 204.044C355.083 204.151 355.182 204.213 355.324 204.233C355.466 204.253 355.652 204.239 355.884 204.192C356.116 204.145 356.404 204.081 356.748 203.997C357.125 203.905 357.448 203.866 357.722 203.877C357.994 203.889 358.218 203.962 358.39 204.099C358.563 204.238 358.691 204.435 358.775 204.695C358.86 204.957 358.903 205.283 358.903 205.679C358.903 206.113 358.839 206.552 358.714 206.997C358.589 207.44 358.409 207.862 358.178 208.261C357.947 208.661 357.661 209.035 357.322 209.386C356.984 209.736 356.605 210.032 356.186 210.274C355.833 210.477 355.497 210.606 355.178 210.66C354.859 210.715 354.576 210.69 354.328 210.587C354.08 210.484 353.881 210.303 353.73 210.041C353.58 209.78 353.495 209.443 353.476 209.029C353.47 208.917 353.493 208.809 353.546 208.707C353.598 208.603 353.66 208.532 353.73 208.492L354.387 208.112C354.493 208.05 354.575 208.032 354.631 208.058C354.689 208.083 354.735 208.142 354.773 208.236C354.817 208.337 354.871 208.431 354.933 208.521C354.996 208.609 355.08 208.671 355.187 208.707C355.293 208.742 355.428 208.744 355.587 208.716C355.747 208.686 355.944 208.603 356.184 208.465C356.372 208.357 356.554 208.231 356.73 208.084C356.905 207.941 357.059 207.779 357.191 207.602C357.322 207.424 357.428 207.239 357.51 207.041C357.591 206.845 357.631 206.636 357.631 206.413C357.631 206.201 357.588 206.053 357.501 205.968C357.413 205.884 357.279 205.845 357.101 205.852C356.923 205.859 356.701 205.894 356.437 205.959C356.174 206.024 355.87 206.089 355.525 206.153C355.212 206.217 354.938 206.239 354.703 206.216C354.469 206.192 354.272 206.109 354.12 205.966C353.966 205.823 353.852 205.616 353.777 205.345C353.702 205.075 353.665 204.723 353.665 204.288C353.665 203.854 353.727 203.417 353.852 202.978C353.977 202.539 354.15 202.125 354.37 201.738C354.589 201.35 354.851 200.995 355.156 200.67C355.46 200.342 355.786 200.078 356.137 199.875Z" fill="#FAFAFA"/>
<path d="M363.426 201.126L362.617 205.922C362.586 206.084 362.546 206.226 362.499 206.344C362.452 206.463 362.382 206.55 362.288 206.604L361.525 207.044C361.431 207.098 361.357 207.096 361.304 207.033C361.25 206.972 361.215 206.875 361.197 206.742L359.992 198.301C359.986 198.256 359.983 198.219 359.983 198.191C359.983 198.085 360.008 197.978 360.058 197.872C360.108 197.766 360.167 197.692 360.237 197.653L360.932 197.251C360.995 197.216 361.055 197.21 361.112 197.235C361.168 197.26 361.206 197.339 361.224 197.474L362.014 203.157L362.71 198.889C362.723 198.814 362.752 198.709 362.8 198.576C362.846 198.443 362.926 198.344 363.039 198.278L363.81 197.833C363.923 197.768 364.003 197.775 364.05 197.854C364.097 197.933 364.126 198.002 364.139 198.062L364.835 201.527L365.625 194.932C365.643 194.776 365.682 194.654 365.738 194.562C365.794 194.472 365.854 194.408 365.917 194.373L366.612 193.971C366.681 193.932 366.741 193.936 366.791 193.985C366.841 194.033 366.866 194.11 366.866 194.216C366.866 194.244 366.863 194.285 366.857 194.336L365.653 204.168C365.633 204.324 365.598 204.463 365.546 204.585C365.492 204.707 365.419 204.796 365.324 204.851L364.562 205.29C364.467 205.345 364.397 205.34 364.35 205.275C364.303 205.21 364.264 205.115 364.232 204.988L363.426 201.126Z" fill="#FAFAFA"/>
<path d="M368.11 196.887C368.13 196.336 368.196 195.787 368.312 195.242C368.428 194.697 368.599 194.183 368.825 193.701C369.051 193.219 369.333 192.775 369.671 192.373C370.011 191.969 370.411 191.635 370.876 191.366C371.333 191.101 371.731 190.973 372.069 190.98C372.408 190.988 372.69 191.105 372.916 191.332C373.142 191.559 373.313 191.875 373.433 192.278C373.552 192.683 373.622 193.154 373.641 193.693C373.647 193.874 373.652 194.074 373.655 194.293C373.658 194.513 373.66 194.741 373.66 194.978C373.66 195.215 373.658 195.445 373.655 195.668C373.652 195.893 373.647 196.098 373.641 196.284C373.621 196.837 373.554 197.384 373.439 197.929C373.323 198.474 373.152 198.988 372.926 199.47C372.7 199.952 372.416 200.394 372.075 200.794C371.732 201.194 371.333 201.526 370.876 201.79C370.411 202.058 370.011 202.188 369.671 202.182C369.333 202.174 369.051 202.06 368.825 201.837C368.599 201.616 368.428 201.3 368.312 200.888C368.196 200.478 368.129 200.007 368.11 199.478C368.104 199.298 368.098 199.099 368.096 198.877C368.092 198.657 368.091 198.429 368.091 198.193C368.091 197.957 368.092 197.726 368.096 197.502C368.099 197.279 368.104 197.074 368.11 196.887ZM372.371 194.499C372.346 193.818 372.2 193.365 371.933 193.137C371.666 192.91 371.314 192.922 370.875 193.176C370.436 193.43 370.083 193.824 369.816 194.36C369.549 194.895 369.403 195.516 369.378 196.226C369.365 196.6 369.358 197.012 369.358 197.461C369.358 197.91 369.365 198.313 369.378 198.673C369.402 199.354 369.549 199.805 369.816 200.027C370.083 200.25 370.435 200.234 370.875 199.981C371.314 199.728 371.666 199.336 371.933 198.806C372.2 198.275 372.345 197.656 372.371 196.946C372.384 196.572 372.39 196.161 372.39 195.712C372.39 195.263 372.384 194.86 372.371 194.499Z" fill="#FAFAFA"/>
<path d="M378.032 187.379C378.815 186.927 379.41 186.863 379.818 187.188C380.225 187.513 380.429 188.172 380.429 189.167C380.429 189.872 380.325 190.532 380.115 191.151C379.904 191.769 379.595 192.317 379.188 192.794L380.486 195.621C380.505 195.668 380.514 195.716 380.514 195.765C380.514 195.851 380.493 195.937 380.452 196.025C380.412 196.111 380.362 196.17 380.306 196.203L379.506 196.664C379.381 196.736 379.288 196.744 379.229 196.687C379.169 196.628 379.127 196.57 379.102 196.507L377.871 193.843L376.62 194.566V197.94C376.62 198.046 376.595 198.152 376.545 198.257C376.494 198.364 376.436 198.437 376.366 198.478L375.604 198.917C375.535 198.956 375.476 198.952 375.425 198.903C375.374 198.855 375.35 198.779 375.35 198.673V189.319C375.35 189.212 375.374 189.106 375.425 189.001C375.476 188.894 375.534 188.821 375.604 188.78L378.032 187.379ZM376.621 192.755L377.984 191.968C378.342 191.762 378.627 191.5 378.84 191.184C379.053 190.869 379.159 190.44 379.159 189.899C379.159 189.359 379.052 189.058 378.84 188.998C378.626 188.938 378.342 189.011 377.984 189.218L376.621 190.005V192.755Z" fill="#FAFAFA"/>
<path d="M384.7 183.529C385.164 183.261 385.566 183.123 385.908 183.113C386.25 183.105 386.535 183.208 386.765 183.424C386.994 183.639 387.168 183.957 387.291 184.379C387.413 184.801 387.486 185.309 387.512 185.902C387.537 186.601 387.537 187.316 387.512 188.045C387.487 188.668 387.413 189.261 387.291 189.823C387.168 190.387 386.995 190.906 386.769 191.385C386.542 191.863 386.262 192.292 385.926 192.674C385.591 193.057 385.198 193.377 384.746 193.638L382.376 195.006C382.307 195.046 382.248 195.042 382.197 194.993C382.147 194.945 382.122 194.869 382.122 194.762V185.408C382.122 185.303 382.147 185.195 382.197 185.09C382.248 184.984 382.306 184.91 382.376 184.87L384.7 183.529ZM386.242 186.635C386.229 186.334 386.19 186.069 386.125 185.842C386.059 185.615 385.962 185.439 385.833 185.316C385.704 185.192 385.543 185.132 385.35 185.132C385.155 185.134 384.922 185.212 384.654 185.368L383.394 186.095V192.611L384.701 191.857C384.958 191.709 385.18 191.525 385.369 191.304C385.557 191.085 385.713 190.843 385.839 190.576C385.964 190.31 386.06 190.024 386.126 189.716C386.191 189.407 386.231 189.095 386.243 188.78C386.266 188.049 386.266 187.336 386.242 186.635Z" fill="#FAFAFA"/>
<path d="M247.377 38.3949C249.125 38.7819 250.772 39.4009 252.319 40.2499C253.866 41.0999 255.177 42.1409 256.25 43.3729C257.323 44.6039 258.096 46.0039 258.567 47.5719C259.039 49.1379 259.073 50.8339 258.67 52.6549C258.341 54.1419 257.822 55.3839 257.115 56.3769C256.406 57.3709 255.593 58.2249 254.675 58.9369C253.757 59.6499 252.788 60.2749 251.774 60.8099C250.757 61.3459 249.795 61.8549 248.891 62.3349C247.984 62.8169 247.163 63.3489 246.432 63.9269C245.699 64.5059 245.187 65.1929 244.894 65.9859C244.728 66.3789 244.483 66.6939 244.158 66.9329C243.831 67.1739 243.464 67.2469 243.055 67.1579L238.816 66.2189C238.407 66.1289 238.077 65.9009 237.828 65.5319C237.578 65.1649 237.517 64.7819 237.644 64.3809C238.04 62.9469 238.627 61.7409 239.41 60.7639C240.192 59.7869 241.06 58.9459 242.016 58.2399C242.972 57.5349 243.965 56.9269 244.995 56.4139C246.024 55.8999 246.983 55.4009 247.872 54.9149C248.759 54.4299 249.517 53.9139 250.143 53.3709C250.771 52.8279 251.171 52.1649 251.344 51.3839C251.657 49.9719 251.32 48.6779 250.331 47.5029C249.343 46.3289 247.863 45.5239 245.893 45.0869C242.733 44.3869 240.059 45.4529 237.872 48.2839C237.596 48.6519 237.332 48.9149 237.084 49.0739C236.833 49.2339 236.466 49.2599 235.982 49.1519L231.465 48.1519C231.131 48.0779 230.866 47.9019 230.675 47.6259C230.483 47.3499 230.428 47.0249 230.51 46.6529C230.834 45.3599 231.53 44.1199 232.592 42.9309C233.654 41.7429 234.949 40.7429 236.474 39.9289C238 39.1169 239.706 38.5479 241.591 38.2249C243.479 37.9029 245.406 37.9579 247.377 38.3949ZM242.594 70.5669C243.002 70.6569 243.323 70.8839 243.553 71.2479C243.785 71.6109 243.856 71.9969 243.765 72.4059L242.678 77.3129C242.587 77.7229 242.361 78.0429 241.997 78.2739C241.634 78.5069 241.249 78.5769 240.84 78.4859L236.044 77.4239C235.634 77.3319 235.314 77.1069 235.082 76.7419C234.85 76.3789 234.779 75.9939 234.87 75.5839L235.957 70.6759C236.048 70.2679 236.274 69.9469 236.638 69.7149C237.002 69.4849 237.387 69.4129 237.797 69.5039L242.594 70.5669Z" fill="#5865F2"/>
<path d="M252.716 85.305C253.935 85.106 255.15 85.079 256.36 85.229C257.569 85.377 258.675 85.708 259.679 86.223C260.682 86.74 261.536 87.439 262.239 88.323C262.944 89.208 263.399 90.286 263.607 91.555C263.776 92.593 263.761 93.523 263.562 94.34C263.363 95.158 263.06 95.914 262.654 96.607C262.248 97.299 261.788 97.947 261.273 98.55C260.759 99.154 260.273 99.725 259.816 100.266C259.358 100.807 258.968 101.358 258.647 101.916C258.325 102.474 258.172 103.045 258.188 103.628C258.182 103.923 258.105 104.188 257.959 104.425C257.811 104.662 257.594 104.804 257.31 104.851L254.352 105.334C254.066 105.381 253.796 105.318 253.541 105.146C253.287 104.975 253.149 104.745 253.129 104.455C253.016 103.434 253.084 102.512 253.336 101.684C253.586 100.858 253.928 100.095 254.36 99.399C254.792 98.703 255.273 98.058 255.802 97.465C256.331 96.873 256.818 96.307 257.263 95.767C257.707 95.23 258.061 94.705 258.324 94.197C258.587 93.687 258.675 93.161 258.586 92.615C258.425 91.631 257.877 90.887 256.942 90.386C256.007 89.886 254.853 89.748 253.478 89.973C251.273 90.333 249.832 91.702 249.154 94.077C249.071 94.383 248.97 94.619 248.85 94.785C248.731 94.952 248.502 95.062 248.165 95.117L245.014 95.633C244.78 95.671 244.566 95.626 244.371 95.498C244.177 95.369 244.059 95.176 244.016 94.916C243.893 94.005 244.021 93.031 244.399 91.997C244.775 90.963 245.349 89.99 246.119 89.079C246.889 88.167 247.838 87.367 248.963 86.677C250.091 85.987 251.341 85.53 252.716 85.305ZM257.884 107.154C258.169 107.108 258.433 107.172 258.675 107.344C258.916 107.519 259.06 107.748 259.107 108.032L259.667 111.458C259.714 111.743 259.65 112.007 259.477 112.248C259.303 112.49 259.074 112.633 258.788 112.68L255.441 113.227C255.156 113.274 254.892 113.211 254.651 113.038C254.409 112.864 254.265 112.635 254.218 112.35L253.658 108.924C253.612 108.64 253.675 108.376 253.848 108.134C254.022 107.893 254.251 107.748 254.536 107.701L257.884 107.154Z" fill="#5865F2"/>
<g opacity="0.2">
<path d="M252.716 85.305C253.935 85.106 255.15 85.079 256.36 85.229C257.569 85.377 258.675 85.708 259.679 86.223C260.682 86.74 261.536 87.439 262.239 88.323C262.944 89.208 263.399 90.286 263.607 91.555C263.776 92.593 263.761 93.523 263.562 94.34C263.363 95.158 263.06 95.914 262.654 96.607C262.248 97.299 261.788 97.947 261.273 98.55C260.759 99.154 260.273 99.725 259.816 100.266C259.358 100.807 258.968 101.358 258.647 101.916C258.325 102.474 258.172 103.045 258.188 103.628C258.182 103.923 258.105 104.188 257.959 104.425C257.811 104.662 257.594 104.804 257.31 104.851L254.352 105.334C254.066 105.381 253.796 105.318 253.541 105.146C253.287 104.975 253.149 104.745 253.129 104.455C253.016 103.434 253.084 102.512 253.336 101.684C253.586 100.858 253.928 100.095 254.36 99.399C254.792 98.703 255.273 98.058 255.802 97.465C256.331 96.873 256.818 96.307 257.263 95.767C257.707 95.23 258.061 94.705 258.324 94.197C258.587 93.687 258.675 93.161 258.586 92.615C258.425 91.631 257.877 90.887 256.942 90.386C256.007 89.886 254.853 89.748 253.478 89.973C251.273 90.333 249.832 91.702 249.154 94.077C249.071 94.383 248.97 94.619 248.85 94.785C248.731 94.952 248.502 95.062 248.165 95.117L245.014 95.633C244.78 95.671 244.566 95.626 244.371 95.498C244.177 95.369 244.059 95.176 244.016 94.916C243.893 94.005 244.021 93.031 244.399 91.997C244.775 90.963 245.349 89.99 246.119 89.079C246.889 88.167 247.838 87.367 248.963 86.677C250.091 85.987 251.341 85.53 252.716 85.305ZM257.884 107.154C258.169 107.108 258.433 107.172 258.675 107.344C258.916 107.519 259.06 107.748 259.107 108.032L259.667 111.458C259.714 111.743 259.65 112.007 259.477 112.248C259.303 112.49 259.074 112.633 258.788 112.68L255.441 113.227C255.156 113.274 254.892 113.211 254.651 113.038C254.409 112.864 254.265 112.635 254.218 112.35L253.658 108.924C253.612 108.64 253.675 108.376 253.848 108.134C254.022 107.893 254.251 107.748 254.536 107.701L257.884 107.154Z" fill="black"/>
</g>
<path d="M280.991 90.6889C281.27 90.8879 281.439 91.1609 281.499 91.5079C281.557 91.8559 281.487 92.1689 281.289 92.4479L278.907 95.7989C278.708 96.0789 278.435 96.2479 278.088 96.3059C277.74 96.3659 277.427 96.2949 277.148 96.0969L273.874 93.7689C273.594 93.5699 273.426 93.2979 273.367 92.9509C273.307 92.6019 273.378 92.2899 273.577 92.0109L275.959 88.6589C276.157 88.3799 276.429 88.2109 276.778 88.1519C277.125 88.0929 277.437 88.1629 277.717 88.3619L280.991 90.6889ZM294.845 67.9769C296.037 68.8239 297.082 69.8149 297.977 70.9479C298.872 72.0819 299.529 73.2829 299.943 74.5519C300.359 75.8229 300.495 77.1219 300.351 78.4529C300.207 79.7849 299.694 81.0719 298.809 82.3159C298.087 83.3319 297.301 84.1009 296.453 84.6239C295.603 85.1479 294.719 85.5319 293.8 85.7759C292.88 86.0209 291.952 86.1829 291.018 86.2639C290.08 86.3429 289.195 86.4199 288.359 86.4939C287.523 86.5679 286.736 86.7069 286.001 86.9099C285.264 87.1119 284.659 87.4669 284.187 87.9709C283.937 88.2139 283.652 88.3729 283.33 88.4499C283.008 88.5269 282.708 88.4659 282.429 88.2669L279.534 86.2089C279.255 86.0109 279.079 85.7339 279.008 85.3769C278.937 85.0209 279.012 84.7119 279.236 84.4499C279.992 83.4959 280.818 82.7749 281.719 82.2879C282.619 81.8019 283.541 81.4439 284.487 81.2169C285.43 80.9899 286.373 80.8479 287.313 80.7899C288.251 80.7309 289.133 80.6599 289.958 80.5769C290.781 80.4939 291.515 80.3479 292.162 80.1379C292.807 79.9279 293.32 79.5569 293.699 79.0239C294.385 78.0589 294.542 76.9779 294.172 75.7779C293.802 74.5789 292.944 73.5009 291.6 72.5449C289.441 71.0109 287.086 70.9619 284.537 72.3979C284.211 72.5869 283.929 72.7029 283.691 72.7429C283.451 72.7829 283.168 72.6859 282.838 72.4519L279.753 70.2589C279.525 70.0969 279.382 69.8809 279.325 69.6119C279.268 69.3409 279.331 69.0809 279.51 68.8269C280.166 67.9559 281.084 67.2419 282.264 66.6849C283.444 66.1279 284.737 65.7869 286.146 65.6609C287.553 65.5349 289.019 65.6489 290.542 66.0069C292.063 66.3629 293.498 67.0199 294.845 67.9769Z" fill="#5865F2"/>
<g opacity="0.6">
<path d="M280.991 90.6889C281.27 90.8879 281.439 91.1609 281.499 91.5079C281.557 91.8559 281.487 92.1689 281.289 92.4479L278.907 95.7989C278.708 96.0789 278.435 96.2479 278.088 96.3059C277.74 96.3659 277.427 96.2949 277.148 96.0969L273.874 93.7689C273.594 93.5699 273.426 93.2979 273.367 92.9509C273.307 92.6019 273.378 92.2899 273.577 92.0109L275.959 88.6589C276.157 88.3799 276.429 88.2109 276.778 88.1519C277.125 88.0929 277.437 88.1629 277.717 88.3619L280.991 90.6889ZM294.845 67.9769C296.037 68.8239 297.082 69.8149 297.977 70.9479C298.872 72.0819 299.529 73.2829 299.943 74.5519C300.359 75.8229 300.495 77.1219 300.351 78.4529C300.207 79.7849 299.694 81.0719 298.809 82.3159C298.087 83.3319 297.301 84.1009 296.453 84.6239C295.603 85.1479 294.719 85.5319 293.8 85.7759C292.88 86.0209 291.952 86.1829 291.018 86.2639C290.08 86.3429 289.195 86.4199 288.359 86.4939C287.523 86.5679 286.736 86.7069 286.001 86.9099C285.264 87.1119 284.659 87.4669 284.187 87.9709C283.937 88.2139 283.652 88.3729 283.33 88.4499C283.008 88.5269 282.708 88.4659 282.429 88.2669L279.534 86.2089C279.255 86.0109 279.079 85.7339 279.008 85.3769C278.937 85.0209 279.012 84.7119 279.236 84.4499C279.992 83.4959 280.818 82.7749 281.719 82.2879C282.619 81.8019 283.541 81.4439 284.487 81.2169C285.43 80.9899 286.373 80.8479 287.313 80.7899C288.251 80.7309 289.133 80.6599 289.958 80.5769C290.781 80.4939 291.515 80.3479 292.162 80.1379C292.807 79.9279 293.32 79.5569 293.699 79.0239C294.385 78.0589 294.542 76.9779 294.172 75.7779C293.802 74.5789 292.944 73.5009 291.6 72.5449C289.441 71.0109 287.086 70.9619 284.537 72.3979C284.211 72.5869 283.929 72.7029 283.691 72.7429C283.451 72.7829 283.168 72.6859 282.838 72.4519L279.753 70.2589C279.525 70.0969 279.382 69.8809 279.325 69.6119C279.268 69.3409 279.331 69.0809 279.51 68.8269C280.166 67.9559 281.084 67.2419 282.264 66.6849C283.444 66.1279 284.737 65.7869 286.146 65.6609C287.553 65.5349 289.019 65.6489 290.542 66.0069C292.063 66.3629 293.498 67.0199 294.845 67.9769Z" fill="white"/>
</g>
<path d="M206.526 179.212H170.999V93.127C170.999 77.56 183.619 64.939 199.187 64.939H202.47C218.038 64.939 230.658 77.559 230.658 93.127V155.082C230.657 168.409 219.853 179.212 206.526 179.212Z" fill="#263238"/>
<path d="M167.545 386.44C167.253 388.602 166.632 391.126 166.516 397.244C166.392 403.802 165.187 406.13 165.027 411.513C164.845 417.663 165.907 419.965 168.403 423.421C170.899 426.878 177.449 430.015 180.217 424.171C183.019 418.258 182.629 414.501 181.744 408.467C180.829 402.23 180.713 398.785 180.182 394.028C179.715 389.835 179.155 386.65 179.155 386.65L167.545 386.44Z" fill="#263238"/>
<path d="M186.162 342.87L164.558 342.478C164.879 356.9 167.171 372.908 167.545 386.439C167.615 388.986 167.481 406.232 168.442 411.473C169.885 419.347 179.232 418.284 179.728 413.571C180.224 408.859 179.126 388.726 179.156 386.649C179.074 377.971 183.141 363.322 185.274 347.744C185.378 346.979 186.063 343.616 186.162 342.87Z" fill="#FFA8A7"/>
<path d="M213.914 375.217C213.914 375.217 213.061 374.759 212.885 375.669C212.676 376.752 212.364 378.984 211.914 380.762C211.289 383.233 210.769 387.303 211.144 389.316C211.519 391.329 216.213 393.921 219.26 394.857C223.756 396.237 226.841 398.492 229.304 400.81C232.322 403.651 238.835 406.334 243.27 406.302C248.518 406.264 252.177 404.554 253.906 401.744C255.712 398.809 252.33 398.593 246.332 394.702C244.97 393.818 243.42 392.819 241.676 391.68C232.174 385.473 228.695 382.147 226.007 375.939L213.914 375.217Z" fill="#263238"/>
<path d="M226.082 371.375C225.922 366.909 228.985 329.029 228.985 329.029L208.468 338.382C212.862 364.605 213.798 370.789 213.876 375.08C213.842 375.18 213.755 375.544 213.76 376.179C213.779 381.274 219.528 384.021 224.013 387.418C225.785 388.759 230.937 392.721 236.143 395.337C239.402 396.975 246.019 397.124 246.839 395.027C241.381 390.859 233.443 384.622 229.102 379.862C227.029 377.588 226.242 375.84 226.082 371.375Z" fill="#FFA8A7"/>
<path d="M173.411 202.157C165.535 219.455 165.535 232.831 166.837 254.901C168.031 275.146 169.935 292.968 169.935 292.968C169.63 296.561 164.637 303.571 163.991 319.446C163.387 334.288 165.013 353.155 165.013 353.155C165.013 353.155 176.221 359.367 184.509 353.101C184.509 353.101 192.506 314.912 194.85 296.334C196.895 280.121 200.449 259.405 200.449 259.405L207.977 296.246C207.977 296.246 205.113 305.329 204.443 312.248C203.384 323.176 209.496 344.634 209.496 344.634C209.496 344.634 221.077 348.09 228.15 341.818C228.15 341.818 230.795 306.93 231.782 293.765C233.104 276.137 230.324 228.414 228.149 203.15L173.411 202.157Z" fill="#455A64"/>
<path d="M200.449 259.405L203.561 231.673C203.561 231.673 217.502 229.81 223.817 223.873C223.817 223.873 219.072 232.567 207.391 234.254L202.892 260.059L207.978 296.246L200.449 259.405Z" fill="#263238"/>
<path d="M256.896 195.343C257.764 186.843 257.731 181.18 257.656 180.091C257.352 175.69 256.565 174.974 250.412 167.176C242.106 156.648 235.017 147.186 227.518 137.772C222.165 131.051 216.538 130.017 211.042 130.321C207.199 130.534 214.696 149.003 218.473 159.932L240.024 183.112C240.687 184.027 240.992 185.154 240.881 186.278L239.558 206.012L246.012 214.645C246.012 214.645 255.785 206.219 256.896 195.343Z" fill="#FFA8A7"/>
<path d="M190.281 130.919C186.113 131.206 178.533 131.873 178.533 131.873C174.159 134.314 173.054 136.315 172.24 142.124C171.894 144.595 173.908 151.189 175.638 160.557L178.921 177.931L178.565 186.547C176.861 191.804 173.006 198.339 169.611 207.971C186.307 217.289 200.31 217.634 213.009 216.004C222.693 214.761 227.817 212.417 229.525 210.103C229.169 200.587 228.496 194.712 228.331 184.77C228.262 180.594 228.513 176.381 228.675 171.575C235.172 166.238 235.246 157.363 231.702 151.626C223.469 138.297 215.464 129.905 210.162 130.335L190.281 130.919Z" fill="#5865F2"/>
<path opacity="0.6" d="M190.281 130.919C186.113 131.206 178.533 131.873 178.533 131.873C174.159 134.314 173.054 136.315 172.24 142.124C171.894 144.595 173.908 151.189 175.638 160.557L178.921 177.931L178.565 186.547C176.861 191.804 173.006 198.339 169.611 207.971C186.307 217.289 200.31 217.634 213.009 216.004C222.693 214.761 227.817 212.417 229.525 210.103C229.169 200.587 228.496 194.712 228.331 184.77C228.262 180.594 228.513 176.381 228.675 171.575C235.172 166.238 235.246 157.363 231.702 151.626C223.469 138.297 215.464 129.905 210.162 130.335L190.281 130.919Z" fill="white"/>
<path opacity="0.1" d="M215.751 171.72C215.751 171.72 208.125 177.638 199.422 174.552C190.72 171.466 189.449 163.858 189.449 163.858C189.449 163.858 188.525 173.807 199.503 177.2C210.098 180.473 215.751 171.72 215.751 171.72Z" fill="black"/>
<path d="M226.091 103.61C225.763 118.047 221.077 121.616 218.729 122.641C216.381 123.666 211.848 123.041 207.45 122.313V130.977C207.45 130.977 212.526 136.299 212.146 140.267C211.757 144.245 204.169 144.686 198.468 140.8C194.307 137.966 191.335 134.726 190.038 133.189C189.566 132.63 189.311 131.928 189.311 131.196V110.808C189.311 110.808 186.901 113.361 182.636 110.439C178.381 107.527 178.012 102.092 180.616 99.0158C182.472 96.8318 187.189 96.6778 189.455 100.072C190.726 102.564 190.901 105.066 192.326 104.03C196.13 101.292 194.09 95.0678 198.683 91.9918C198.693 91.9918 198.693 91.9818 198.703 91.9818C200.077 91.2438 201.636 90.5458 203.379 89.9408C211.572 87.1108 218.668 84.7318 220.38 79.1328C223.609 81.0508 226.491 86.5778 226.091 103.61Z" fill="#FFA8A7"/>
<path d="M209.943 116.509C210.99 116.509 211.838 115.66 211.838 114.614C211.838 113.567 210.99 112.719 209.943 112.719C208.897 112.719 208.048 113.567 208.048 114.614C208.048 115.66 208.897 116.509 209.943 116.509Z" fill="#B16668"/>
<path d="M208.675 101.421C208.733 102.566 207.886 103.535 206.785 103.588C205.683 103.64 204.744 102.755 204.686 101.61C204.629 100.466 205.475 99.496 206.577 99.443C207.678 99.392 208.618 100.277 208.675 101.421Z" fill="#263238"/>
<path d="M223.83 101.618C223.883 102.658 223.113 103.54 222.111 103.587C221.01 103.639 220.261 102.934 220.203 101.79C220.151 100.75 220.92 99.8678 221.922 99.8198C222.924 99.7728 223.778 100.578 223.83 101.618Z" fill="#263238"/>
<path d="M206.108 106.562C202.522 106.562 199.604 103.644 199.604 100.058C199.604 95.6357 204.161 95.6357 206.108 95.6357C208.055 95.6357 212.612 95.6357 212.612 100.058C212.612 103.645 209.694 106.562 206.108 106.562ZM206.108 96.6617C202.166 96.6617 200.63 97.6137 200.63 100.059C200.63 103.08 203.087 105.537 206.108 105.537C209.129 105.537 211.586 103.08 211.586 100.059C211.586 97.6137 210.05 96.6617 206.108 96.6617Z" fill="#455A64"/>
<path d="M222.618 106.562C219.032 106.562 216.114 103.644 216.114 100.058C216.114 95.6357 220.671 95.6357 222.618 95.6357C224.565 95.6357 229.122 95.6357 229.122 100.058C229.122 103.645 226.204 106.562 222.618 106.562ZM222.618 96.6617C218.676 96.6617 217.14 97.6137 217.14 100.059C217.14 103.08 219.597 105.537 222.618 105.537C225.639 105.537 228.096 103.08 228.096 100.059C228.096 97.6137 226.56 96.6617 222.618 96.6617Z" fill="#455A64"/>
<path d="M213.621 97.9619L213.941 110.108L220.334 108.127L213.621 97.9619Z" fill="#F28F8F"/>
<path d="M207.445 122.31C202.802 121.701 193.25 118.957 191.762 115.181C191.762 115.181 192.258 117.554 195.111 120C197.964 122.445 207.445 125.201 207.445 125.201V122.31Z" fill="#F28F8F"/>
<path d="M207.665 92.0637L203.429 94.6457C202.735 93.4267 203.121 91.8607 204.291 91.1477C205.461 90.4347 206.972 90.8447 207.665 92.0637Z" fill="#263238"/>
<path d="M224.921 94.943L220.202 93.295C220.612 91.964 222 91.255 223.303 91.71C224.606 92.164 225.33 93.612 224.921 94.943Z" fill="#263238"/>
<path d="M212.097 100.576C211.814 100.576 211.585 100.342 211.585 100.058C211.585 99.226 213.231 98.688 214.708 98.688C216.185 98.688 217.139 99.226 217.139 100.058C217.139 100.341 216.91 100.571 216.626 100.571C216.343 100.571 216.113 100.342 216.113 100.058C216.067 99.964 215.594 99.714 214.707 99.714C213.82 99.714 212.656 99.964 212.608 100.067C212.609 100.351 212.38 100.576 212.097 100.576Z" fill="#455A64"/>
<path d="M200.133 100.143C200.114 100.143 200.095 100.142 200.075 100.14L188.644 99.0988C188.439 98.9088 187.898 98.3498 186.771 97.8828L200.189 99.1208C200.47 99.1518 200.673 99.4058 200.642 99.6878C200.612 99.9488 200.39 100.143 200.133 100.143Z" fill="#455A64"/>
<path d="M153.203 112.056C156.941 107.062 159.49 103.288 162.902 99.007C164.839 96.576 166.078 94.841 167.942 92.347C169.225 90.63 169.977 89.182 171.399 88.65C172.999 88.051 174.542 86.867 175.571 85.786C176.306 85.013 176.908 84.126 177.544 83.269C179.68 80.39 182.232 77.82 185.095 75.663C188.104 73.396 191.447 71.667 194.534 69.507C196.376 68.218 198.351 66.077 196.109 64.079C195.44 63.482 194.59 63.126 193.714 62.935C188.273 61.746 183.525 63.622 178.203 64.983C175.89 65.574 173.614 66.315 171.426 67.272C170.364 67.736 169.305 68.241 168.425 68.994C167.053 70.168 166.232 71.839 165.341 73.408C162.948 77.624 157.991 81.344 154.502 84.626C150.409 88.476 146.751 92.006 142.082 96.254C137.88 100.077 133.769 103.602 129.915 107.777C126.727 111.231 127.887 113.933 128.341 114.866C130.939 120.21 133.848 122.126 137.323 125.436C143.342 131.17 164.074 147.664 170.952 153.108C172.424 154.273 173.58 155.784 174.323 157.508L175.636 160.558C183.476 162.001 188.707 150.23 182.214 136.057C181.161 133.758 179.49 131.801 177.447 130.311C169.264 124.341 153.203 112.056 153.203 112.056Z" fill="#FFA8A7"/>
<path d="M153.203 112.056C153.203 112.056 149.658 116.795 143.621 118.651C143.621 118.651 148.622 119.927 155.467 113.784L153.203 112.056Z" fill="#F28F8F"/>
<path d="M254.861 184.908L254.887 184.911L253.605 183.806L253.604 183.822C253.315 183.59 252.866 183.517 252.286 183.675L238.401 187.452C237.114 187.802 235.717 189.107 235.281 190.367L225.289 219.196C225.058 219.864 225.15 220.379 225.473 220.669L225.462 220.673L226.784 221.812L226.783 221.795C227.071 222.035 227.525 222.112 228.114 221.952L241.999 218.176C243.286 217.826 244.683 216.52 245.119 215.26C247.082 209.593 253.15 192.096 255.112 186.43C255.358 185.719 255.236 185.185 254.861 184.908Z" fill="#455A64"/>
<path d="M226.574 220.303L236.566 191.474C237.002 190.214 238.399 188.909 239.686 188.559L253.571 184.783C254.858 184.433 255.547 185.171 255.111 186.431C253.149 192.097 247.081 209.594 245.119 215.261C244.683 216.521 243.285 217.827 241.999 218.177L228.114 221.953C226.827 222.301 226.138 221.563 226.574 220.303Z" fill="#5865F2"/>
<path d="M238.176 189.359C237.453 189.93 236.831 190.716 236.565 191.477L226.57 220.297C226.354 220.944 226.418 221.451 226.709 221.743L225.466 220.677L225.479 220.664C225.149 220.372 225.06 219.865 225.289 219.193L235.284 190.36C235.525 189.65 236.096 188.927 236.768 188.356L238.176 189.359Z" fill="#37474F"/>
<path d="M251.046 198.045C250.067 200.982 246.578 202.941 240.843 204.3C235.108 205.659 231.931 211.749 232.857 213.602C233.784 215.455 243.051 217.176 246.758 216.647C250.465 216.117 254.194 210.759 255.316 209.101C256.438 207.443 257.746 195.862 256.555 194.274C255.363 192.685 252.86 192.929 252.86 192.929L251.046 198.045Z" fill="#F28F8F"/>
</svg>
